<?xml version="1.0" encoding="UTF-8"?>
<svg class="hods-header__logo-svg"  preserveAspectRatio="xMinYMin" version="1.1" viewBox="81.14 80.65 62 71.15" xmlns="http://www.w3.org/2000/svg">
 <g transform="">
  <g class="hods-header__logo-svg__vertical-line">
   <rect x="81.14" y="80.65" class="st2" width="4.25" height="71.15" />
  </g>
  <g id="hods-header__logo-svg__coat-of-arms">
   <g>
    <g>
     <path d="M123.07,148.04c-0.39-0.86-1.86-0.35-1.58,0.51c1.75-0.58,0.56,2.19-0.72,1.43c-0.93-0.23-0.79-2.26,0.22-1.41
				c0.14-1.05-1.24-1.3-1.79-0.51c-0.07-0.67-0.48-1.55-1.24-1.44c0.04,2.02,1.13,4.94,3.38,5.17c2.07-0.72,2.98-3.12,2.88-5.15
				C123.36,146.78,123.08,147.08,123.07,148.04z"/>
     <path d="M114.85,140.86c-1.82-0.62-3.17-2.26-2.78-4.24c-0.44-0.22-0.79-0.84-0.53-1.32c0.56-0.29,0.97,0.09,1.44,0.34
				c1.68-1.41,3.37-0.23,4.93,0.67c0.04-0.14,0.08-0.26,0.12-0.38c-1-0.59-2.16-2.28-3.31-2.16c-0.95,0.4-3.87,0.34-3.8,1.66
				c0.04,1.17-0.65,3.35,0.35,4.17c1.06,0.53,2.12,1.45,3.29,1.6C114.67,141.15,115.05,141.02,114.85,140.86z"/>
     <path d="M117.3,137.7c-1.91-0.29-2.06,2.63-0.25,2.75C118.96,140.65,119.11,137.83,117.3,137.7z M117.14,138.43
				c0.84-0.02,0.87,1.24,0.09,1.26C116.37,139.72,116.44,138.48,117.14,138.43z"/>
     <path d="M121.17,142.31c1.68-0.03,1.77-2.76-0.1-2.74C119.02,139.66,119.51,142.49,121.17,142.31z M121.11,140.33
				c0.79-0.03,0.79,1.25-0.04,1.21C120.25,141.55,120.31,140.3,121.11,140.33z"/>
     <path d="M114.21,135.86c-0.2-0.13-1.01-0.08-0.78,0.27c1.69,0.76,0.36,2.39-0.83,0.95c-0.3,0.42-0.03,0.72,0.23,1.01
				C114.47,139.41,116.2,136.73,114.21,135.86z"/>
     <path d="M119.16,146.9c0.01,0.01,0.02,0.01,0.07,0.02c0.04-0.4,0.04-3.56,0-3.84c-0.15-0.07-0.29-0.17-0.49-0.16
				c-0.03,1.01-0.01,2.01-0.01,3.02C118.65,146.38,118.8,146.67,119.16,146.9z"/>
     <path d="M113.73,136.72c-0.63-0.4-1.21-1.35-2.03-1.18c-0.08,0.7,1.41,1.56,1.97,1.87C113.99,137.13,114.01,136.96,113.73,136.72
				z"/>
     <path d="M123.66,144.66c-0.17-0.05-0.31-0.15-0.48-0.12c-0.04,0.71-0.17,1.53-0.02,2.22c0.16-0.08,0.29-0.14,0.46-0.22
				C123.64,145.9,123.65,145.29,123.66,144.66z"/>
     <path d="M134.5,112.31c-0.12,0-0.21,0.04-0.31,0.09v1.35C134.55,113.15,135.1,112.41,134.5,112.31z"/>
     <path d="M121.18,146.16c0.66,0.04,0.58-1.04-0.08-0.99C120.49,145.2,120.56,146.21,121.18,146.16z"/>
     <path d="M134.2,118.92v0.97c0.17,0.51,0.33,1.27,0.4,2.6c0.06,1.2-0.02,2.41-0.29,3.58c-0.27,1.2-0.68,2.44-1.16,3.26
				c0.21-0.53,0.65-2.11,0.62-6.56l0.04-13.98h-24.72c0.01,0.05-0.09,13.41-0.09,13.65c0.04,5.22,0.93,7.03,1.11,7.65
				c-1.19-0.96-2.12-7.33-1.39-9.76c0.03-0.07,0.05-1.76,0.05-1.76c-1.49,4.17-0.93,9.31,1.59,12.91c0.55,0.62,2.03,2.9,2.91,2.42
				c-4.21-3.21-3.85-11.13-3.75-11.13h11.62v15.3c-0.67,0.02-1.48-0.58-2.14-0.77c-1.45-0.45-2.57-1.86-4.13-1.85
				c3.61,2.47,7.72,4.65,12.06,5.4c-0.47,0.19-0.86,0.76-1.35,0.45c-1.33-0.47-2.4,0.73-1.67,2.02c-0.1,0.15-0.21,0.31-0.31,0.46
				c-3.94-0.76-7.52-3.06-10.93-4.91c1.05,1.98,7.45,4.4,9.71,5.19c0.48,0.09,1.74,0.83,1.79,0c-0.05-0.21,0.02-0.34,0.13-0.49
				c0.38,0.13,0.79-0.4,0.44-0.67c-0.44-0.29-0.16-1.02,0.37-0.93c0.16,0.02,0.27,0.12,0.38,0.23c0.32,0.35,0.69,0.09,0.76-0.2
				c0.19-0.58,1.29-0.96,1.85-1.14c0.71-0.15,1.84-0.21,1.96-1.09c-1.85,0.83-3.99,0.57-5.89-0.07c-0.14-0.06-0.31-0.12-0.5-0.18
				c0.06-0.06,0.12-0.13,0.15-0.21c0.23-0.64,0.55-1.41,0.81-2.04c3.32-1.52,6.52-3.51,8.39-6.68
				C134.96,127.17,135.77,122.6,134.2,118.92z M121.45,109.3h11.91l0,13.14h-11.91L121.45,109.3z M121.12,122.44H109.5V109.3h11.62
				V122.44z M123.81,137.65c-0.13,0.42-0.27,0.84-0.43,1.25c-0.08,0.2-0.13,0.35-0.17,0.46c-0.66-0.22-1.37-0.47-1.61-0.83
				c0.74-0.29,1.48-0.6,2.23-0.92C123.82,137.62,123.81,137.63,123.81,137.65z M131.59,131.81c-2.65,3.07-6.46,4.72-10.13,6.27
				c0-5.08,0-15.3,0-15.3h11.91C133.43,125.19,133.43,129.73,131.59,131.81z"/>
     <path d="M128.16,108.42h1.47c-0.12-0.36-0.5-0.52-0.94-0.86C128.58,107.91,128.38,108.17,128.16,108.42z"/>
     <path d="M114.48,108.42c0.05-0.01,0.1-0.01,0.14-0.01l-0.78-0.59l-1,0.6H114.48z"/>
     <path d="M119.2,108.42c0.36-1.43-1.7-2.6-2.81-1.28c-0.37,0.39-0.47,0.86-0.38,1.28h0.74c-0.22-0.46-0.16-1.01,0.41-1.23
				c0.76-0.31,1.5,0.54,1.42,1.23H119.2z"/>
     <path d="M122.24,106.37c0.13,0.41,0.29,1.45,0.11,2.05h0.78c-0.05-0.72,0.01-1.52,0.17-2.05H122.24z"/>
     <path d="M120.21,106.37c0.26,0.54,0.11,1.39,0.16,2.05h0.78c-0.17-0.65,0.01-1.73,0.12-2.05H120.21z"/>
     <path d="M125.44,108.42c0.15-0.58,0.35-1.17,0.59-1.55l-0.82-0.28c0.01,0.51-0.16,1.19-0.36,1.82H125.44z"/>
     <path d="M132.73,110.7v0.05c0.44,0.15,0.56-0.6,0.1-0.61l0.29-0.54l-0.07-0.07c-0.01,0-0.52,0.31-0.53,0.3
				c-0.01-0.46-0.74-0.35-0.6,0.1h0.04c0.16-0.2,0.38,0.16,0.13,0.21c0,0-4.38,0-4.38,0l0.14-0.31h-0.8l0.14,0.31l-4.37,0
				c-0.26-0.04-0.04-0.42,0.12-0.21h0.04c0.14-0.45-0.6-0.56-0.6-0.1c-0.01,0.01-0.52-0.3-0.53-0.3l-0.07,0.07l0.29,0.54
				c-0.47,0.01-0.34,0.75,0.1,0.61c0.32-1.77,0.2,4.66,0.21,4.88l-0.31-0.13v0.8l0.31-0.14c-0.01,0.11,0.12,6.66-0.21,4.89
				c-0.44-0.15-0.57,0.6-0.1,0.61l-0.29,0.54l0.07,0.07c0.01,0,0.52-0.31,0.53-0.3c0,0.46,0.74,0.35,0.6-0.1h-0.04
				c-0.16,0.2-0.38-0.16-0.13-0.21c0,0,4.38,0,4.38,0l-0.14,0.32h0.8l-0.14-0.32h4.37c0.07,0.01,0.12,0.07,0.12,0.13
				c0,0.13-0.18,0.19-0.24,0.08h-0.05c-0.14,0.45,0.6,0.56,0.6,0.1c0-0.01,0.52,0.3,0.53,0.3l0.07-0.07l-0.29-0.54
				c0.47-0.01,0.34-0.75-0.1-0.61c-0.32,1.77-0.2-4.66-0.21-4.9l0.32,0.14v-0.8l-0.32,0.14l0-5.06
				C132.56,110.32,132.93,110.53,132.73,110.7z M132.21,121.35h-9.52v-5.48l0,0l0,0v-5.41h9.52V121.35z"/>
     <path d="M131.83,110.84h-8.77v10.11h8.77V110.84z M127.88,111.14L127.88,111.14C127.88,111.14,127.88,111.14,127.88,111.14
				L127.88,111.14z M123.37,116.34L123.37,116.34c0,0,0,0.01,0,0.02V116.34z M123.46,120.42v-0.02l0.02,0.02H123.46z M127.01,120.65
				L127.01,120.65C127.01,120.65,127.01,120.65,127.01,120.65L127.01,120.65z M127.89,120.65L127.89,120.65
				C127.89,120.65,127.89,120.65,127.89,120.65L127.89,120.65z M131.38,115.27l-0.05-0.05c-0.29-0.04-0.33,0.43-0.04,0.44v0.01
				l-0.35,0.16v0.11l0.35,0.16v0.01c-0.29,0.02-0.25,0.48,0.04,0.44l0.05-0.05c0.27-1.11,0.13,3.72,0.15,3.83h-0.3v0.3h-3.25
				c-0.19-0.03-0.04-0.3,0.08-0.16l0.05-0.05c0.04-0.3-0.43-0.33-0.44-0.03h-0.01l-0.16-0.36h-0.11l-0.16,0.36h-0.01
				c-0.01-0.29-0.47-0.26-0.44,0.03l0.05,0.05c0.12-0.14,0.27,0.13,0.08,0.16c0,0-3.24,0-3.24,0v-0.3h-0.3v-3.99
				c0,0.03,0,0.08,0,0.08c0.02-0.19,0.3-0.05,0.16,0.08l0.05,0.05c0.29,0.04,0.33-0.43,0.04-0.44v-0.01l0.35-0.16v-0.11l-0.35-0.16
				v-0.01c0.29-0.02,0.25-0.48-0.04-0.44l-0.05,0.05c0.14,0.13-0.14,0.27-0.16,0.08c0,0.01,0,0.1,0,0.11h0v-4.02h0.3v-0.3h3.25
				c0.18,0.03,0.03,0.3-0.09,0.16l-0.05,0.05c-0.04,0.3,0.45,0.32,0.44,0.02h0l0.17,0.37h0.11l0.17-0.37c0,0.3,0.48,0.28,0.45-0.02
				l-0.05-0.05c-0.11,0.14-0.27-0.12-0.09-0.16h3.25v0.3h0.3C131.5,111.37,131.65,116.37,131.38,115.27z M131.54,115.46
				L131.54,115.46L131.54,115.46C131.53,115.46,131.54,115.46,131.54,115.46z"/>
     <path d="M124.72,112.7c0.42,0.53,0.89,2.08,1.71,1.93l0-0.01c0.14-0.06,0.28-0.51,0.29-0.57c0-0.02-0.09-0.1-0.18-0.17
				c-0.6-0.59-0.98-1.08-0.5-1.65c-0.01-0.45-0.36,0.05-0.49-0.02c-0.07-0.13-0.33-0.49-0.49-0.32c-0.1,0.05,0.02,0.31-0.05,0.37
				c-0.04,0.05-0.06,0.06-0.17,0.06C124.47,112.31,124.42,112.55,124.72,112.7z"/>
     <path d="M126.68,115.7c0.12-0.13,0.49-0.51,0.53-0.6c0.04-0.09,0.05-0.09,0.31-0.11c0.71-0.11,1.08-0.42,1.28-1.24
				c0.1-0.25-0.03-0.78-0.17-0.89c-0.06-0.04-0.08-0.12-0.05-0.15c0.13-0.02,0.41-0.14,0.46-0.3c-0.08-0.16-0.26-0.04-0.51-0.13
				c-0.19-0.09-0.68-0.25-0.88-0.14c-0.45,0.34-1.06,0.04-0.73,0.79l0.38,0.05l0.01,0.29c0,0-0.27,0.06-0.36,0.08
				c-0.23,0.35,0.54,0.38,0.74,0.11c0.14-0.17,0.35-0.2,0.34-0.01c-0.1,0.23-0.47,0.35-0.68,0.47c-0.32,0.06-0.41,0.73-0.65,0.95
				c-0.7,0.14-0.95,0.12-1.64-0.48c-0.25-0.31-0.45-0.08-0.26,0.17c-0.17,0-0.83-0.3-0.43,0.38c-0.32,0.49,0.15,0.32,0.42,0.47
				C125.34,115.65,125.95,115.83,126.68,115.7z"/>
     <path d="M128.92,115.23l0.3,0.65c0,0,0.64,0.3,0.72,0.39c0.36,0.28,0.3,1.05-0.02,0.96c-0.53-0.23-0.84-1.03-1.21-1.52
				c-0.1-0.08-0.35-0.89-0.52-0.68c-2.18,0.52,0.39,1.12,0,1.98c-0.08,0.12-0.32,0.73-0.22,0.82c0.18,0.24,0.59,0.41,0.81,0.72
				c0.36,0.37,0.04,0.8-0.4,0.45c-0.25-0.2-0.55,0.09-0.29,0.36c0.02,0.05-0.15,0.13-0.18,0.15c-0.26,0.38,0.17,0.36,0.4,0.17
				c0.13-0.07,0,0.33,0.21,0.27c0.4-0.09,1.01-0.31,1.12-0.97c0.25-0.61-0.33-0.51-0.47-1.04c-0.14-0.22-0.15-1.02,0.16-0.73
				c0.29,0.39,0.68,0.61,1.03,0.26c0.55-1.22-0.98-2.37-0.79-3.69c0.44-0.56,0.95,0.44,1.27-1.12
				C127.41,113.29,130.6,115.83,128.92,115.23z"/>
     <path d="M127.26,116.55c-1.42-0.2-0.61,0.85-0.65,1.58c-0.22,0.13-1.05-0.23-0.95-0.53c0-0.25-0.24-0.31-0.31-0.13
				c-0.04,0.08-0.1,0.08-0.18-0.02c-0.15-0.24-0.37,0.08-0.28,0.26c0.03,0.07-0.01,0.15-0.09,0.16c-0.23,0.1-0.22,0.43,0.1,0.45
				c0.7,0.34,1.3,0.7,2.11,0.58l-0.01,0c0.88-0.07,0.43-0.25,0.39-0.91C127.24,117.29,128.37,116.83,127.26,116.55z"/>
     <path d="M109.97,131.46l-0.52-0.68c-0.16,0.23-0.39,0.46-0.67,0.67l-1.13,0.82c-0.29,0.21-0.57,0.36-0.84,0.44l0.52,0.68
				c0.16-0.23,0.39-0.46,0.67-0.66l0.37-0.27l0.8,1.05l-0.37,0.27c-0.29,0.21-0.57,0.36-0.84,0.44l0.52,0.68
				c0.16-0.23,0.39-0.46,0.67-0.66l1.13-0.82c0.29-0.21,0.57-0.36,0.84-0.44l-0.52-0.68c-0.16,0.23-0.39,0.46-0.67,0.67l-0.37,0.27
				l-0.8-1.05l0.37-0.27C109.41,131.69,109.69,131.54,109.97,131.46z"/>
     <path d="M108.07,127.87c-0.25-0.21-0.53-0.35-0.85-0.4c-0.32-0.06-0.64-0.02-0.95,0.1c-0.47,0.17-0.8,0.48-0.98,0.94
				c-0.18,0.46-0.18,0.92,0.01,1.4c0.11,0.31,0.29,0.57,0.55,0.78c0.25,0.21,0.54,0.34,0.86,0.4c0.32,0.06,0.62,0.03,0.92-0.09
				c0.28-0.1,0.53-0.27,0.73-0.51c0.2-0.24,0.33-0.52,0.38-0.84c0.06-0.33,0.02-0.65-0.11-0.98
				C108.5,128.35,108.31,128.09,108.07,127.87z M108.04,129.72c-0.19,0.33-0.46,0.56-0.82,0.69c-0.31,0.12-0.61,0.13-0.89,0.01
				c-0.28-0.11-0.46-0.31-0.56-0.57c-0.13-0.32-0.11-0.65,0.07-1s0.45-0.58,0.8-0.71c0.31-0.12,0.6-0.12,0.88-0.01
				c0.28,0.11,0.48,0.3,0.59,0.59C108.25,129.06,108.23,129.39,108.04,129.72z"/>
     <path d="M107.25,125.76c-0.15,0.04-0.36,0.08-0.62,0.12l-1.16,0.17l1.62-1.65c0.18-0.18,0.32-0.29,0.42-0.33l-0.12-0.81
				c-0.32,0.12-0.68,0.21-1.1,0.27l-1.19,0.17c-0.26,0.04-0.47,0.06-0.62,0.06c-0.15,0-0.32-0.01-0.51-0.04l0.13,0.89
				c0.15-0.07,0.31-0.13,0.49-0.18c0.17-0.05,0.37-0.09,0.61-0.12l1.37-0.2l-1.69,1.72c-0.14,0.14-0.24,0.24-0.3,0.29
				c-0.08,0.06-0.16,0.11-0.24,0.15l0.15,1.01l0.02,0c0.11-0.19,0.25-0.36,0.41-0.52l1.82-0.27c0.24-0.04,0.45-0.05,0.62-0.06
				c0.18,0,0.35,0.01,0.51,0.04l-0.13-0.88C107.57,125.65,107.41,125.72,107.25,125.76z"/>
     <path d="M105.11,121.71l1.47,0.14c0.37,0.04,0.7,0.12,0.97,0.24l0.09-0.91c-0.3,0.07-0.63,0.09-1,0.05l-1.47-0.14
				c-0.37-0.04-0.7-0.12-0.97-0.24l-0.09,0.91C104.41,121.7,104.74,121.68,105.11,121.71z"/>
     <path d="M108.54,117.28c-0.05-0.31-0.21-0.54-0.49-0.68c-0.2-0.09-0.38-0.12-0.55-0.07c-0.17,0.05-0.4,0.18-0.68,0.39
				c-0.22,0.16-0.39,0.26-0.53,0.3c-0.14,0.04-0.25,0.04-0.36-0.01c-0.1-0.05-0.17-0.14-0.19-0.26c-0.03-0.12,0-0.26,0.07-0.4
				c0.11-0.23,0.31-0.41,0.59-0.54l0-0.01l-0.56-0.28c-0.2,0.17-0.36,0.38-0.49,0.63c-0.16,0.32-0.21,0.63-0.13,0.93
				c0.07,0.3,0.23,0.51,0.47,0.63c0.19,0.1,0.39,0.13,0.57,0.1c0.19-0.03,0.41-0.14,0.66-0.33c0.25-0.19,0.44-0.3,0.55-0.34
				c0.11-0.04,0.22-0.04,0.32,0.01c0.11,0.06,0.18,0.15,0.21,0.28c0.03,0.13,0.01,0.26-0.06,0.39c-0.07,0.14-0.17,0.25-0.29,0.33
				c-0.12,0.08-0.3,0.16-0.54,0.23l-0.01,0.02l0.74,0.37c0.2-0.19,0.37-0.43,0.51-0.71C108.53,117.92,108.59,117.59,108.54,117.28z"
     />
     <path d="M108.59,112.64v-0.44c0-0.01,0-0.02,0-0.03c-0.23,0.03-0.46,0.1-0.67,0.22c-0.29,0.16-0.51,0.38-0.68,0.66
				c-0.16,0.28-0.24,0.57-0.24,0.89c-0.01,0.3,0.07,0.59,0.22,0.86c0.15,0.27,0.37,0.49,0.65,0.66c0.22,0.13,0.45,0.21,0.71,0.23
				v-0.52c-0.2-0.06-0.38-0.19-0.54-0.37c-0.25-0.29-0.36-0.63-0.36-1.01c-0.01-0.34,0.09-0.62,0.3-0.84
				C108.17,112.77,108.37,112.67,108.59,112.64z"/>
     <path d="M135.54,115.18l-1.22,0.67c-0.04,0.02-0.08,0.04-0.12,0.06v1.67l0.29,0.52l0.84,0l0-0.01c-0.16-0.14-0.34-0.33-0.54-0.58
				c-0.2-0.25-0.38-0.49-0.53-0.74l1.66-0.9c0.31-0.17,0.62-0.26,0.91-0.28l-0.55-1.02C136.1,114.81,135.86,115.01,135.54,115.18z"
     />
     <path d="M137.96,118.97c0.02-0.01,0.06-0.01,0.1-0.02l-0.27-0.91l-0.01,0c-0.07,0.15-0.2,0.34-0.41,0.55l-1.1,1.14l-0.51,0.15
				c-0.36,0.11-0.69,0.15-0.99,0.14l0.26,0.88c0.25-0.18,0.55-0.32,0.91-0.42l0.53-0.16l1.57,0.37c0.25,0.06,0.44,0.12,0.58,0.19
				l0.01,0l-0.24-0.83c-0.02,0.01-0.04,0.03-0.08,0.04c-0.13,0.04-0.28,0.04-0.46,0l-0.89-0.2l0.63-0.65
				C137.71,119.09,137.84,119,137.96,118.97z"/>
     <path d="M138.56,124.58l0.1-1.04c-0.29,0.09-0.61,0.12-0.97,0.08l-1.41-0.14c-0.36-0.04-0.67-0.13-0.93-0.27l-0.1,1.1
				c0.29-0.09,0.61-0.12,0.97-0.08l0.34,0.03c-0.01,0.09-0.02,0.16-0.03,0.21c-0.04,0.46,0.01,0.84,0.17,1.13
				c0.16,0.29,0.39,0.46,0.71,0.49c0.29,0.03,0.54-0.09,0.76-0.36C138.38,125.47,138.51,125.08,138.56,124.58z M137.94,125.11
				c-0.14,0.16-0.3,0.23-0.5,0.21c-0.19-0.02-0.34-0.12-0.46-0.31c-0.12-0.19-0.18-0.43-0.18-0.72l0.96,0.1
				c0.19,0.02,0.33,0.04,0.43,0.06C138.17,124.73,138.08,124.95,137.94,125.11z"/>
     <path d="M137.54,129.56l0.56-1.9c-0.3,0.01-0.63-0.03-0.99-0.14l-1.41-0.42c-0.36-0.11-0.66-0.25-0.91-0.42l-0.53,1.81l0.58,0.47
				l0.01-0.01c-0.05-0.42,0-0.89,0.15-1.41l1.05,0.31c-0.1,0.28-0.22,0.51-0.36,0.67l0.47,0.51l0.31-1.05l1,0.3
				c-0.11,0.35-0.27,0.62-0.48,0.81L137.54,129.56z"/>
     <path d="M135.72,132.14c0.09,0,0.18,0.01,0.26,0.03l0.55-0.85l-0.01-0.01c-0.2,0.07-0.4,0.12-0.62,0.15l-1.4-0.91
				c-0.18-0.12-0.34-0.23-0.46-0.34c-0.12-0.11-0.23-0.22-0.32-0.34l-0.49,0.75c0.16,0.04,0.31,0.09,0.44,0.15
				c0.13,0.06,0.29,0.16,0.5,0.29l0.89,0.58l-2.16,0.26c-0.24,0.03-0.41,0.03-0.5,0l-0.44,0.68c0.29,0.1,0.6,0.26,0.92,0.47
				l0.92,0.6c0.2,0.13,0.35,0.24,0.46,0.33c0.1,0.09,0.21,0.21,0.32,0.35l0.49-0.75c-0.15-0.04-0.3-0.09-0.45-0.16
				c-0.14-0.07-0.31-0.16-0.49-0.28l-1.06-0.69l2.26-0.27C135.52,132.15,135.65,132.14,135.72,132.14z"/>
     <path d="M131.63,136.45l-0.01,0.01l0.46,0.39c0.21-0.1,0.4-0.24,0.56-0.42c0.2-0.24,0.3-0.5,0.28-0.78
				c-0.02-0.28-0.12-0.51-0.32-0.68c-0.16-0.14-0.33-0.21-0.51-0.23c-0.18-0.02-0.4,0.02-0.66,0.11c-0.26,0.1-0.45,0.15-0.57,0.15
				c-0.11,0.01-0.21-0.02-0.29-0.1c-0.09-0.08-0.14-0.18-0.14-0.3c0-0.12,0.04-0.23,0.13-0.33c0.09-0.1,0.19-0.17,0.32-0.22
				c0.13-0.04,0.3-0.06,0.54-0.06l0.01-0.01l-0.61-0.52c-0.21,0.12-0.41,0.28-0.59,0.49c-0.22,0.25-0.33,0.52-0.34,0.81
				c-0.01,0.29,0.1,0.53,0.33,0.72c0.17,0.13,0.33,0.2,0.49,0.21c0.16,0,0.39-0.05,0.69-0.16c0.22-0.08,0.4-0.12,0.53-0.13
				c0.13,0,0.24,0.03,0.32,0.11s0.13,0.17,0.13,0.28c0,0.11-0.04,0.22-0.13,0.33C132.11,136.3,131.9,136.41,131.63,136.45z"/>
     <path d="M128.9,138.85l1.59-0.9c-0.21-0.19-0.4-0.43-0.57-0.73l-0.67-1.18c-0.17-0.3-0.28-0.59-0.33-0.86l-1.51,0.85l0.08,0.69
				l0.01,0c0.24-0.31,0.57-0.59,1-0.83l0.49,0.88c-0.25,0.12-0.47,0.2-0.67,0.22l-0.01,0.64l0.88-0.5l0.47,0.84
				c-0.3,0.16-0.58,0.24-0.84,0.23L128.9,138.85z"/>
     <path d="M108.49,135.3c-3.15-3.18-4.88-7.53-4.88-12.24c0-4.81,1.62-9.14,4.55-12.21c0.17-0.18,0.37-0.37,0.6-0.59v-0.66
				l-0.01,0.01c-0.34,0.3-0.66,0.6-0.95,0.91c-3.02,3.15-4.68,7.61-4.68,12.54c0,4.84,1.78,9.31,5.02,12.59
				c0.65,0.66,1.44,1.33,2.21,1.89l0.09,0.07l0.02-0.11c0.02-0.09,0.02-0.23,0.02-0.34c0-0.04,0-0.08,0-0.11l0-0.04l-0.03-0.02
				C109.72,136.46,109.16,135.97,108.49,135.3z"/>
     <path d="M134.4,110.05c-0.07-0.07-0.14-0.13-0.21-0.2v0.68c3.04,3.09,4.71,7.52,4.71,12.51c0,4.75-1.69,9.1-4.76,12.25
				c-2.03,2.08-4.92,3.86-7.56,4.64l0.03,0.14c0.12-0.02,0.29-0.02,0.48-0.03c0.2-0.01,0.42-0.02,0.65-0.04
				c2.52-0.77,4.48-2.03,6.75-4.36c3.16-3.24,4.9-7.71,4.9-12.59C139.4,117.86,137.62,113.24,134.4,110.05z"/>
     <path d="M111.01,103.21l-0.52,1.07l-0.17,0.35l0.33,0.21l1,0.64c0.15,0.56,0.31,1.16,0.48,1.8c-0.3-0.01-1.51,0.89-1.86,1.13h0.9
				c2.81-1.74,6.21-2.65,10.09-2.68c4-0.04,7.46,0.87,10.31,2.68h0.88c-0.27-0.19-1.76-1.07-1.86-1.12
				c0.17-0.65,0.33-1.25,0.48-1.81l1-0.64l0.33-0.21l-0.17-0.35l-0.52-1.07c1.54-5.37,2.04-5.67,2.82-5.79l0.04-0.15l-2.85-0.92
				l-0.05,0.19c0.72,0.53,0.95,1.41,0.63,2.44c-0.76-0.33-1.2-1.06-1.11-1.72c-0.01,0-0.19-0.05-0.19-0.05l-0.95,3.21
				c0,0,0.14,0.04,0.15,0.05c0.38-0.55,1.03-0.86,1.79-0.73c-0.64,1.28-1.24,1.99-2.62,1.74c-1.49-0.27-1.86-1.53-1.52-2.2
				c0.25-0.49,0.51-0.55,0.8-0.45c0.29,0.1,0.46,0.52,0.21,1.13c0.56-0.11,1.13-0.86,1.2-1.52c0.06-0.66-0.5-1.11-0.97-1.16
				c-0.44-0.04-0.85,0.1-1.22,0.58c0.63-1.31,0.99-2.33,0.2-3.59c-1.03,0.67-1.29,1.87-1.09,3.48c-0.44-1.42-1.64-1.5-2.16-0.63
				c-0.52,0.86,0.13,1.89,0.49,2.24c-0.18-0.67,0.09-1.18,0.69-1.05c0.6,0.13,0.61,1.4-0.17,2.06c-0.78,0.65-1.96,0.55-2.73-0.03
				c-0.71-0.53-0.97-1.12-1.12-2.3c0.98,0.09,1.73,0.68,1.83,1.41c0.02,0,0.18,0.01,0.18,0.01l0.12-3.67c0,0-0.21-0.01-0.22-0.01
				c-0.15,0.74-0.95,1.37-1.96,1.39c0.07-1.13,0.71-2.01,1.54-2.15c0-0.02,0-0.21,0-0.21l-4.18,0c0,0,0,0.19,0,0.21
				c0.83,0.14,1.47,1.03,1.54,2.15c-1.01-0.02-1.81-0.65-1.96-1.39c-0.02,0-0.22,0.01-0.22,0.01l0.12,3.67c0,0,0.16-0.01,0.18-0.01
				c0.1-0.74,0.85-1.33,1.83-1.41c-0.15,1.17-0.41,1.77-1.12,2.3c-0.77,0.58-1.95,0.68-2.73,0.03c-0.78-0.65-0.77-1.92-0.17-2.06
				c0.6-0.13,0.87,0.38,0.69,1.05c0.37-0.35,1.02-1.37,0.49-2.24c-0.52-0.86-1.72-0.78-2.16,0.63c0.2-1.61-0.07-2.82-1.09-3.48
				c-0.79,1.26-0.43,2.29,0.2,3.59c-0.37-0.47-0.78-0.62-1.22-0.58c-0.47,0.05-1.03,0.5-0.97,1.16c0.06,0.66,0.64,1.41,1.2,1.52
				c-0.25-0.61-0.08-1.03,0.21-1.13c0.29-0.1,0.55-0.04,0.8,0.45c0.34,0.67-0.04,1.93-1.52,2.2c-1.38,0.25-1.98-0.46-2.62-1.74
				c0.76-0.13,1.41,0.18,1.79,0.73c0.01,0,0.15-0.05,0.15-0.05l-0.95-3.21c0,0-0.17,0.05-0.19,0.05c0.08,0.65-0.35,1.38-1.11,1.72
				c-0.33-1.03-0.09-1.91,0.63-2.44L111,96.35l-2.85,0.92l0.04,0.15C108.97,97.54,109.47,97.84,111.01,103.21z M131.13,103.02
				l0.71,1.45l-1.34,0.86l-1.3-1.61L131.13,103.02z M124.7,102.75c0.12-0.63,0.94-1.01,1.84-0.83c0.9,0.17,1.52,0.83,1.4,1.46
				c-0.12,0.63-0.94,1.01-1.84,0.83C125.21,104.04,124.58,103.38,124.7,102.75z M121.36,101.07l2.07,1.48l-2.07,1.48l-2.07-1.48
				L121.36,101.07z M116.17,101.91c0.9-0.17,1.72,0.2,1.84,0.83c0.12,0.63-0.51,1.29-1.4,1.46c-0.9,0.17-1.72-0.2-1.84-0.83
				C114.65,102.74,115.27,102.09,116.17,101.91z M113.52,103.72l-1.3,1.61l-1.34-0.86l0.71-1.45L113.52,103.72z"/>
     <path d="M131.49,95.75l1.03,0.33c-1.63-3.48-4.62-6.09-8.21-7.02c-0.09,0.24-0.17,0.5-0.24,0.78
				C127.22,90.65,129.89,92.82,131.49,95.75z"/>
     <path d="M110.19,96.09l1.03-0.33c1.6-2.93,4.27-5.11,7.42-5.91c-0.07-0.28-0.15-0.54-0.24-0.78
				C114.81,90,111.83,92.61,110.19,96.09z"/>
     <path d="M129.13,90.46c0.31,0,0.57-0.26,0.57-0.57c0-0.32-0.25-0.57-0.57-0.57c-0.31,0-0.57,0.26-0.57,0.57
				C128.56,90.21,128.81,90.46,129.13,90.46z"/>
     <path d="M131.35,92.5c0.31,0,0.57-0.26,0.57-0.57c0-0.32-0.25-0.57-0.57-0.57c-0.31,0-0.57,0.26-0.57,0.57
				C130.79,92.24,131.04,92.5,131.35,92.5z"/>
     <path d="M132.56,94.39c0,0.32,0.25,0.57,0.57,0.57s0.57-0.26,0.57-0.57c0-0.32-0.25-0.57-0.57-0.57S132.56,94.07,132.56,94.39z"
     />
     <path d="M131.73,93.11c0,0.32,0.25,0.57,0.57,0.57c0.31,0,0.57-0.26,0.57-0.57c0-0.32-0.25-0.57-0.57-0.57
				C131.99,92.53,131.73,92.79,131.73,93.11z"/>
     <path d="M127.86,89.64c0.31,0,0.57-0.26,0.57-0.57c0-0.32-0.25-0.57-0.57-0.57c-0.31,0-0.57,0.26-0.57,0.57
				C127.3,89.38,127.55,89.64,127.86,89.64z"/>
     <path d="M126.52,88.96c0.31,0,0.57-0.26,0.57-0.57c0-0.32-0.25-0.57-0.57-0.57c-0.31,0-0.57,0.26-0.57,0.57
				C125.95,88.7,126.21,88.96,126.52,88.96z"/>
     <path d="M133.24,95.74c0,0.32,0.25,0.57,0.57,0.57c0.31,0,0.57-0.26,0.57-0.57c0-0.32-0.25-0.57-0.57-0.57
				C133.5,95.17,133.24,95.42,133.24,95.74z"/>
     <ellipse cx="125.11" cy="87.87" rx="0.57" ry="0.57"/>
     <path d="M130.29,91.42c0.31,0,0.57-0.26,0.57-0.57c0-0.32-0.25-0.57-0.57-0.57c-0.31,0-0.57,0.26-0.57,0.57
				C129.73,91.16,129.98,91.42,130.29,91.42z"/>
     <path d="M108.9,96.32c0.31,0,0.57-0.26,0.57-0.57c0-0.32-0.25-0.57-0.57-0.57s-0.57,0.26-0.57,0.57
				C108.34,96.06,108.59,96.32,108.9,96.32z"/>
     <path d="M112.42,91.42c0.31,0,0.57-0.26,0.57-0.57c0-0.32-0.25-0.57-0.57-0.57c-0.31,0-0.57,0.26-0.57,0.57
				C111.85,91.16,112.11,91.42,112.42,91.42z"/>
     <path d="M111.36,92.5c0.31,0,0.57-0.26,0.57-0.57c0-0.32-0.25-0.57-0.57-0.57s-0.57,0.26-0.57,0.57
				C110.79,92.24,111.05,92.5,111.36,92.5z"/>
     <path d="M110.41,93.68c0.31,0,0.57-0.26,0.57-0.57c0-0.32-0.25-0.57-0.57-0.57s-0.57,0.26-0.57,0.57
				C109.84,93.43,110.1,93.68,110.41,93.68z"/>
     <path d="M109.59,94.96c0.31,0,0.57-0.26,0.57-0.57c0-0.32-0.25-0.57-0.57-0.57s-0.57,0.26-0.57,0.57
				C109.02,94.71,109.28,94.96,109.59,94.96z"/>
     <path d="M114.85,89.64c0.31,0,0.57-0.26,0.57-0.57c0-0.32-0.25-0.57-0.57-0.57c-0.31,0-0.57,0.26-0.57,0.57
				C114.28,89.38,114.54,89.64,114.85,89.64z"/>
     <path d="M116.19,88.96c0.31,0,0.57-0.26,0.57-0.57c0-0.32-0.25-0.57-0.57-0.57s-0.57,0.26-0.57,0.57
				C115.63,88.7,115.88,88.96,116.19,88.96z"/>
     <path d="M117.61,88.44c0.31,0,0.57-0.26,0.57-0.57s-0.25-0.57-0.57-0.57c-0.31,0-0.57,0.26-0.57,0.57S117.29,88.44,117.61,88.44z
				"/>
     <path d="M113.59,90.46c0.31,0,0.57-0.26,0.57-0.57c0-0.32-0.25-0.57-0.57-0.57c-0.31,0-0.57,0.26-0.57,0.57
				C113.02,90.21,113.27,90.46,113.59,90.46z"/>
     <path d="M122.34,94.3h0.76c0-2.43,0.35-4.53,0.97-5.91c0.09-0.19,0-0.42-0.19-0.51c-0.05-0.02-0.1-0.03-0.16-0.03
				c-0.14,0-0.28,0.08-0.34,0.22C122.47,90.07,122.34,92.83,122.34,94.3z"/>
     <path d="M119.62,94.3h0.76c0-1.47-0.14-4.23-1.04-6.23c-0.06-0.14-0.2-0.22-0.34-0.22c-0.05,0-0.11,0.01-0.16,0.03
				c-0.19,0.09-0.27,0.32-0.19,0.51C119.27,89.78,119.62,91.88,119.62,94.3z"/>
     <path d="M121.36,93.05c-0.34,0-0.62,0.28-0.62,0.62c0,0.34,0.28,0.62,0.62,0.62c0.34,0,0.62-0.28,0.62-0.62
				C121.97,93.33,121.7,93.05,121.36,93.05z"/>
     <path d="M121.36,91.49c-0.34,0-0.62,0.28-0.62,0.62c0,0.34,0.28,0.62,0.62,0.62c0.34,0,0.62-0.28,0.62-0.62
				C121.97,91.76,121.7,91.49,121.36,91.49z"/>
     <ellipse cx="121.36" cy="90.55" rx="0.62" ry="0.62"/>
     <path d="M121.36,88.58c-0.34,0-0.62,0.28-0.62,0.62c0,0.17,0.07,0.33,0.18,0.44c0.13-0.07,0.28-0.11,0.44-0.11
				s0.3,0.04,0.44,0.11c0.11-0.11,0.18-0.27,0.18-0.44C121.97,88.86,121.7,88.58,121.36,88.58z"/>
     <path d="M121.36,87.34c-0.34,0-0.62,0.28-0.62,0.62c0,0.14,0.05,0.27,0.13,0.37c0.15-0.08,0.31-0.14,0.49-0.14
				c0.18,0,0.34,0.05,0.49,0.14c0.08-0.1,0.13-0.23,0.13-0.37C121.97,87.62,121.7,87.34,121.36,87.34z"/>
     <path d="M120.99,83.09c-0.1,0.8-0.51,1.41-1.02,1.51v0.2h1c-0.05,0.04-0.09,0.08-0.12,0.12c-0.85,0.23-1.47,1.01-1.47,1.94
				c0,0.83,0.5,1.55,1.21,1.85c-0.19-0.2-0.31-0.47-0.31-0.76c0-0.61,0.49-1.1,1.09-1.1c0.6,0,1.09,0.49,1.09,1.1
				c0,0.3-0.12,0.57-0.31,0.76c0.71-0.31,1.21-1.02,1.21-1.85c0-0.93-0.62-1.71-1.47-1.94c-0.04-0.05-0.08-0.09-0.12-0.12h1v-0.2
				c-0.51-0.1-0.92-0.71-1.02-1.51c0.79,0.1,1.4,0.52,1.49,1.04h0.2V81.3h-0.2c-0.09,0.52-0.7,0.94-1.49,1.04
				c0.1-0.8,0.51-1.41,1.02-1.51v-0.2h-2.79v0.2c0.51,0.1,0.92,0.71,1.02,1.51c-0.79-0.1-1.4-0.52-1.49-1.04h-0.2v2.83h0.2
				C119.59,83.61,120.2,83.19,120.99,83.09z"/>
    </g>
    <path d="M123.68,124.06c-0.24,0.68,0.01,1.59,0.64,1.97c0.73-0.33,1.19-1.28,0.94-2.07c0.17-0.15,0.39-0.22,0.32-0.46
			c-0.11-0.28-0.55-0.07-0.66-0.39c-0.27-0.38-0.64-0.07-0.86,0.18c-0.17,0.02-0.33-0.06-0.49,0.01
			C123.42,123.59,123.86,123.77,123.68,124.06z"/>
    <path d="M123.6,125.73c-0.04-0.72-0.88-1.19-0.62-1.91c0.07-0.13,0.04-0.29-0.09-0.4c-0.24,0.06-0.24,0.06-0.43-0.05
			c-0.31-0.16-0.36,0.19-0.33,0.41c-0.06,0.03-0.12,0.06-0.2,0.09C122.14,124.49,122.79,126.05,123.6,125.73z"/>
    <path d="M130.83,129.58c-1.35-0.45-3.47,2.48-4.36,1.62c-0.22-0.47-0.89-0.42-1.31-0.29c0.51,0.36,0.78,1.17,1.55,0.9
			c0.87-0.17,1.55-0.87,2.3-1.19c0.02,0.25-0.24,0.36-0.34,0.6c0.51-0.16,0.98-0.31,1.35-0.63c-0.06-1.42,1.96-0.42,0.02,0.45
			c0.35,0.01,0.59,0.16,0.82-0.12C131.31,130.51,131.33,129.93,130.83,129.58z"/>
    <path d="M130.49,131.31c-1.51-0.19-1.28,0.84-2.02,0.6c0.13-0.16,0.5-0.26,0.38-0.51c-1.1,0.48-2.26,0.83-3.36,1.32
			c-0.56,0.59-0.37,1.78-1.64,1.89c-0.05,0.62-0.91,1.03-1.44,0.76c-0.21,0.2-0.12,0.25-0.09,0.44c-0.18,0.16-0.43,0.54-0.04,0.54
			c0.12-0.03,0.22-0.21,0.35-0.15c-0.01,0.08-0.02,0.16-0.03,0.25c0.1,0,0.24,0.03,0.28-0.01c0.17-0.22,0.42-0.04,0.62-0.21
			c0.65-0.44,1.57-0.84,1.52-1.74c1.14-0.5,1.81-2.35,3.3-1.7c0.74,0.4,0.94-0.8,1.6-0.82c0.19,0.44,0.28,0.4,0.51,0.26
			c0.42,0.32,0.34-0.18,0.51-0.42C130.95,131.57,130.72,131.31,130.49,131.31z"/>
    <path d="M121.99,128.19c0.31,0.47,0.39,1.21,0.91,1.49c0.24,0,0.61,0.22,0.75-0.07c-0.15-0.56-0.84-0.88-0.74-1.52
			c0.03-0.15-0.02-0.29-0.15-0.43c-0.27,0.08-0.83-0.53-0.62,0.19C121.97,127.91,121.88,128.03,121.99,128.19z"/>
    <path d="M125.44,127.36c-0.14-0.08-0.31-0.08-0.46-0.07c-0.25-0.66-0.71-0.41-1.07-0.02c-0.55-0.22-0.47,0.27-0.18,0.54
			c-0.27,0.67-0.08,1.66,0.63,1.95c0.75-0.31,0.96-1.23,0.91-1.96C125.5,127.77,125.69,127.5,125.44,127.36z"/>
    <path d="M121.84,132.6c-0.11,0.29,0.17,0.45,0.28,0.68c0.31,0.49,0.77,1.69,1.49,1.06c-0.27-0.52-0.69-1-0.89-1.55
			c0.24-0.33,0.13-0.76-0.31-0.49c-0.11-0.23-0.28-0.27-0.49-0.21c-0.06,0.14-0.09,0.28,0.07,0.4c0.01,0.01,0,0.04,0,0.07
			C121.93,132.57,121.88,132.59,121.84,132.6z"/>
    <path d="M124.76,131.59c-0.21-0.45-0.66-0.49-0.97-0.11c-0.11,0.14-0.27,0.09-0.42,0.1c-0.3,0.14-0.13,0.47,0.13,0.55
			c-0.15,0.51-0.22,1.03-0.02,1.53c0.71,1.69,1.77-0.46,1.51-1.38C125.49,131.87,125.35,131.63,124.76,131.59z"/>
    <path d="M126.68,129.94c-0.17,0-0.21,0.23-0.09,0.33c0.12,0.13,0.23-0.01,0.37,0.03c0,0.07,0.01,0.14,0.01,0.2
			c0.72,0.04,1.82-0.6,2.2-1.19c-0.15-0.24-0.3-0.46-0.45-0.7c-0.39,0.13-0.84,0.12-1.07,0.47c0.14,0.15,0.26,0.28,0.4,0.43
			c-0.27,0.15-0.57,0.4-0.86,0.16c-0.12-0.11-0.45-0.06-0.37,0.15c0.01,0.03-0.01,0.07-0.01,0.11
			C126.76,129.93,126.72,129.94,126.68,129.94z"/>
    <path d="M127.77,132.86c-0.4,0.1-0.79,0.13-1.04,0.54c0.1,0.13,0.19,0.26,0.29,0.4c-0.19,0.49-0.68,0.41-1.13,0.43
			c0.04,0.15,0.07,0.24,0.09,0.34c-0.19,0.1-0.27,0.27-0.23,0.52c0.05,0.02,0.11,0.04,0.17,0.06c0.13-0.16,0.36-0.32,0.41-0.02
			c0.83-0.27,1.57-0.77,1.96-1.55C128.07,133.39,127.87,133.17,127.77,132.86z"/>
    <path d="M129.96,128.04c0.88-0.02,2.92-0.98,1.44-1.78c-0.83-0.14-1.66,0.27-2.46,0.45c-3.22,1.28-1.33-0.28-3.33-0.11
			c0.67,1.7,2.38,0.82,3.65,0.43c0.04,0.19-0.2,0.23-0.17,0.42c0.43-0.09,0.84-0.17,1.24-0.26c0.18-0.84,1.7-0.85,1-0.01
			c-1.76,0.77-3.84,0.62-5.68,1.15c-1.23,3.23-3.37,1.03-3.35,1.96c-0.48,0.05-0.47,0.51,0.02,0.47c0.01,0.94,2.38-0.15,2.82-0.44
			c0.11-0.23,0.2-0.43,0.3-0.65c0.72,0.35,1.23-0.69,1.86-0.87c0.62-0.12,1.44-0.73,1.97-0.17c0.59,0.65,1.48-0.34,2,0.32
			c-0.2,0.51,0.06,0.28,0.15,0.6c-0.01,0.29,0.47,0.28,0.48-0.01c0-0.13,0.01-0.2,0.14-0.26c0.26-0.4-0.3-0.84-0.49-1.18
			C131.12,127.69,130.4,128.48,129.96,128.04z"/>
    <path d="M128.03,125.75c-0.06-0.05-0.2,0.01-0.21,0.04c0.01,0.29-0.3,0.21-0.39,0.4c0.06,0.12,0.15,0.22,0.28,0.2
			c0.16-0.01,0.15,0.19,0.3,0.2c0.71-0.32,1.54-0.24,2.14-0.8c-0.22-0.19-0.28-0.45-0.33-0.73c-0.41,0.03-0.8-0.03-1.16,0.17
			c-0.04,0.19,0.09,0.29,0.19,0.45C128.56,125.81,128.3,125.87,128.03,125.75z"/>
    <path d="M132.22,124.7c-0.23-0.21-1.13,0.23-1.16-0.22c0.67,0.15,1.97-0.73,1.08-1.3c-1.51-0.35-3.16,0.38-4.69,0.55
			c-0.6,0.13-0.3-0.85-1.63-0.58c0.85,1.78,2.7,0.52,4.13,0.51c0.01,0.16-0.27,0.15-0.2,0.35c0.42-0.13,1.12,0.09,1.36-0.32
			c0.13-0.51,1.2-0.39,0.88,0.2c-0.8,0.51-1.99,0.28-2.93,0.38c-1.15,0.1-2.41,0.12-3.48,0.53c-0.21,0.67-0.51,1.35-1.28,1.51
			c-0.54-0.52-1.32,0.09-1.9-0.44c-0.19,0.04-0.23,0.15-0.3,0.29c-0.28,0.11-0.38,0.27-0.09,0.46c0.14,0.05,0.09,0.22,0.16,0.3
			c0.76,0.05,1.52-0.15,2.28-0.24c0.57,0,0.55-0.5,0.97-0.57c1.01,0.05,1.64-0.84,2.59-0.98c0.76-0.22,1.79-0.5,2.46,0.04
			c0.16,0.18,0.4,0.22,0.64,0.17c0.32-0.06,0.71-0.13,0.87,0.25c-0.05,0.06-0.11,0.11-0.18,0.19c0.03,0.07,0.07,0.15,0.11,0.23
			c0.16-0.01,0.18,0.12,0.24,0.22c0.09,0.14,0.29,0.14,0.32,0c0.04-0.18,0.22-0.09,0.28-0.24
			C132.78,125.51,132.68,124.94,132.22,124.7z"/>
    <g>
     <path d="M120.38,125.93c-0.42-0.04-0.88-0.13-1.29-0.18c-0.38,0.17-0.43,0.82,0,0.96c0.22,0.06,0.69,0.12,0.69,0.1
				C120.3,126.96,121,126.28,120.38,125.93z"/>
     <path d="M113.66,127.74c0.87,1.14,1.73,2.3,2.58,3.44c0.13,0.02,0.37,0.07,0.37,0.07l-3.08-4.2
				C113.52,127.05,113.46,127.48,113.66,127.74z"/>
     <path d="M117.47,131.17l-3.78-5.15c0,0-0.08,0.24-0.11,0.35c0.28,0.38,3.62,4.93,3.62,4.93L117.47,131.17z"/>
     <path d="M114.94,132.29c0.74,0.33,3.67,1.27,2.52-0.5c-3.86,0.08-5.78-4-3.6-7.07c1.29,0.61,5.88-1.55,5.47,0.7
				c0.24,0.26,0.3,0.28,0.85,0.28c1.36-3.02-3.2-2.17-4.83-1.83c-1.46,0.41-2.77-1.73-4.07-0.58c-0.52,0.45-0.2,1.46,0.5,1.5
				c0.62,0.03,0.8-0.82,0.26-1.09c1.2-0.39,0.6,1.53,0.16,2.01c-1.36-0.73-1.62,1.48-0.25,0.92c0.06,0.4,0.07,0.79-0.03,1.17
				c-1.48-0.34-1.11,1.8,0.01,0.95c0.32,0.31,0.46,0.78,0.49,1.24c-0.11,0.04-0.22,0.06-0.31,0.11c-1.12,0.48,0.22,1.85,0.69,0.74
				c0.44,0.27,0.94,0.56,1.39,0.82C113.04,133,115.03,133.62,114.94,132.29z"/>
     <path d="M117.06,133.21c-0.06-0.02-0.13-0.04-0.21-0.07c-0.11,0.28-0.27,0.79-0.03,0.97c0,0,1.24,0.55,1.24,0.55l1.62-1.17
				l0.52-6.44l-0.47,0.03c-0.13,0.01-1.1,7.43-1.55,6.99c0.1-0.49,1.25-6.99,1.25-6.99s-0.32-0.05-0.47-0.07
				c-0.03,0.15-0.06,0.34-0.06,0.34l-1.74-2.35l-0.23,0.11l1.87,2.52l-0.13,0.44c-0.17-0.12-1.97-2.68-2.15-2.92l-0.37-0.03
				l2.43,3.25l-0.14,0.43l-2.72-3.67l-0.35-0.01l2.95,3.99l-0.17,0.57l-3.23-4.52l-0.44,0.01l3.58,4.85l-0.14,0.44l-3.95-5.3
				l-0.07,0.4c0,0,3.67,4.96,3.9,5.29c-0.2,0.6-0.05,0.66,0.2,1.16C118.12,132.55,117.72,133.42,117.06,133.21z"/>
    </g>
    <g>
     <g>
      <g>
       <path d="M119.92,119.99c-0.29,0.14-0.68,0.27-0.9-0.08c0.5-0.2,1.12-0.15,1.47-0.63c0.26-0.31,0.23-0.94-0.26-1.1
						c-1.27-0.35-2.61,0.29-3.89,0.4c-2.4,0.65-0.69-0.52-2.6-0.51c0.68,1.95,2.73,0.7,4.16,0.56c-0.1,0.23-0.34,0.32-0.43,0.52
						c0.5-0.1,1.17,0.09,1.54-0.3c0.19-0.54,1.47-0.6,1.17,0.13c-1.2,1.17-4.96,0.07-6.64,0.83c-0.25,0.76-0.69,1.27-1.43,1.48
						c-0.6-0.37-0.87,0.05-1.47-0.11c-0.17-0.18-0.34-0.39-0.59-0.19c0,0.08,0,0.17,0,0.27c-0.28-0.08-0.6,0.31-0.3,0.49
						c0.12,0.01,0.25-0.14,0.38-0.01c-0.01,0.07-0.02,0.13-0.04,0.2c0.79,0.34,1.66-0.05,2.45-0.26c0.31-0.1,0.49-0.41,0.83-0.4
						c0.81,0.06,1.28-0.62,1.97-0.82c0.86-0.16,1.74-0.3,2.62-0.28c1.01,1.38,1.19,0.21,2.1,0.68c-0.03,0.13-0.05,0.26-0.08,0.41
						c0.09,0.03,0.17,0.06,0.24,0.08c-0.09,0.34,0.42,0.54,0.49,0.11c0.01-0.05-0.01-0.12,0.06-0.13
						C121.32,121.04,120.49,119.61,119.92,119.99z"/>
      </g>
     </g>
     <g>
      <g>
       <path d="M113.58,118.67c-0.03-0.11-0.05-0.2-0.08-0.3c-0.18-0.01-0.34-0.01-0.5-0.02c-0.36-0.46-0.57-0.47-1-0.06
						c-0.29-0.11-0.29-0.11-0.49,0.15c0.07,0.15,0.16,0.26,0.32,0.33c-0.44,0.81-0.31,1.55,0.21,2.23c0.99,0.04,1.39-1.31,1.23-2.13
						C113.38,118.81,113.48,118.74,113.58,118.67z"/>
      </g>
     </g>
     <g>
      <g>
       <path d="M117.93,120.59c-0.12-0.45-0.94-0.08-1.28-0.07c-0.04,0.23,0.16,0.33,0.2,0.5c-0.26,0.17-0.55,0.18-0.83,0.22
						c-0.15-0.15-0.21-0.42-0.47-0.34c-0.15,0.04-0.06,0.19-0.17,0.25c-0.29-0.02-0.29-0.02-0.33,0.27
						c0.09,0.05,0.18,0.11,0.27,0.16c-0.22,1.02,2.57-0.04,2.98-0.34C118.16,121.02,117.99,120.86,117.93,120.59z"/>
      </g>
     </g>
     <g>
      <g>
       <path d="M111.05,119.63c-0.32-0.33-0.42-0.77-0.1-1.12c-0.16-0.15-0.38-0.03-0.53-0.25c-0.2-0.23-0.32,0.04-0.37,0.28
						c-0.57,0.08-0.24,0.27-0.11,0.57c0.19,0.52,0.86,1.78,1.51,1.54C111.42,120.3,111.33,119.88,111.05,119.63z"/>
      </g>
     </g>
    </g>
    <g>
     <g>
      <g>
       <path d="M119.96,115.91c-0.29,0.14-0.68,0.27-0.9-0.08c0.5-0.2,1.12-0.15,1.47-0.63c0.26-0.31,0.23-0.94-0.26-1.1
						c-1.27-0.35-2.61,0.29-3.89,0.4c-2.4,0.65-0.69-0.52-2.6-0.51c0.68,1.95,2.73,0.7,4.16,0.56c-0.1,0.23-0.34,0.32-0.43,0.52
						c0.5-0.1,1.17,0.09,1.54-0.3c0.19-0.54,1.47-0.6,1.17,0.13c-1.2,1.17-4.96,0.07-6.64,0.83c-0.25,0.76-0.69,1.27-1.43,1.48
						c-0.6-0.37-0.87,0.05-1.47-0.11c-0.17-0.18-0.34-0.39-0.59-0.19c0,0.08,0,0.17,0,0.27c-0.28-0.08-0.6,0.31-0.3,0.49
						c0.12,0.01,0.25-0.14,0.38-0.01c-0.01,0.07-0.02,0.13-0.04,0.2c0.79,0.34,1.66-0.05,2.45-0.26c0.31-0.1,0.49-0.41,0.83-0.4
						c0.81,0.06,1.28-0.62,1.97-0.82c0.86-0.16,1.74-0.3,2.62-0.28c1.01,1.38,1.19,0.21,2.1,0.68c-0.03,0.13-0.05,0.26-0.08,0.41
						c0.09,0.03,0.17,0.06,0.24,0.08c-0.09,0.34,0.42,0.54,0.49,0.11c0.01-0.05-0.01-0.12,0.06-0.13
						C121.36,116.96,120.53,115.54,119.96,115.91z"/>
      </g>
     </g>
     <g>
      <g>
       <path d="M113.63,114.6c-0.03-0.11-0.05-0.2-0.08-0.3c-0.18-0.01-0.34-0.01-0.5-0.02c-0.36-0.46-0.57-0.47-1-0.06
						c-0.29-0.11-0.29-0.11-0.49,0.15c0.07,0.15,0.16,0.26,0.32,0.33c-0.44,0.81-0.31,1.55,0.21,2.23c0.99,0.04,1.39-1.31,1.23-2.13
						C113.43,114.73,113.52,114.67,113.63,114.6z"/>
      </g>
     </g>
     <g>
      <g>
       <path d="M117.98,116.52c-0.12-0.45-0.94-0.08-1.28-0.07c-0.04,0.23,0.16,0.33,0.2,0.5c-0.26,0.17-0.55,0.18-0.83,0.22
						c-0.15-0.15-0.21-0.42-0.47-0.34c-0.15,0.04-0.06,0.19-0.17,0.25c-0.29-0.02-0.29-0.02-0.33,0.27
						c0.09,0.05,0.18,0.11,0.27,0.16c-0.22,1.02,2.57-0.04,2.98-0.34C118.21,116.94,118.03,116.78,117.98,116.52z"/>
      </g>
     </g>
     <g>
      <g>
       <path d="M111.1,115.55c-0.32-0.33-0.42-0.77-0.1-1.12c-0.16-0.15-0.38-0.03-0.53-0.25c-0.2-0.23-0.32,0.04-0.37,0.28
						c-0.57,0.08-0.24,0.27-0.11,0.57c0.19,0.52,0.86,1.78,1.51,1.54C111.47,116.22,111.38,115.8,111.1,115.55z"/>
      </g>
     </g>
    </g>
    <g>
     <g>
      <g>
       <path d="M119.92,111.71c-0.29,0.14-0.68,0.27-0.9-0.08c0.5-0.2,1.12-0.15,1.47-0.63c0.26-0.31,0.23-0.94-0.26-1.1
						c-1.27-0.35-2.61,0.29-3.89,0.4c-2.4,0.65-0.69-0.52-2.6-0.51c0.68,1.95,2.73,0.7,4.16,0.56c-0.1,0.23-0.34,0.32-0.43,0.52
						c0.5-0.1,1.17,0.09,1.54-0.3c0.19-0.54,1.47-0.6,1.17,0.13c-1.2,1.17-4.96,0.07-6.64,0.83c-0.25,0.76-0.69,1.27-1.43,1.48
						c-0.6-0.37-0.87,0.05-1.47-0.11c-0.17-0.18-0.34-0.39-0.59-0.19c0,0.08,0,0.17,0,0.27c-0.28-0.08-0.6,0.31-0.3,0.49
						c0.12,0.01,0.25-0.14,0.38-0.01c-0.01,0.07-0.02,0.13-0.04,0.2c0.79,0.34,1.66-0.05,2.45-0.26c0.31-0.1,0.49-0.41,0.83-0.4
						c0.81,0.06,1.28-0.62,1.97-0.82c0.86-0.16,1.74-0.3,2.62-0.28c1.01,1.38,1.19,0.21,2.1,0.68c-0.03,0.13-0.05,0.26-0.08,0.41
						c0.09,0.03,0.17,0.06,0.24,0.08c-0.09,0.34,0.42,0.54,0.49,0.11c0.01-0.05-0.01-0.12,0.06-0.13
						C121.32,112.76,120.49,111.34,119.92,111.71z"/>
      </g>
     </g>
     <g>
      <g>
       <path d="M113.58,110.4c-0.03-0.11-0.05-0.2-0.08-0.3c-0.18-0.01-0.34-0.01-0.5-0.02c-0.36-0.46-0.57-0.47-1-0.06
						c-0.29-0.11-0.29-0.11-0.49,0.15c0.07,0.15,0.16,0.26,0.32,0.33c-0.44,0.81-0.31,1.55,0.21,2.23c0.99,0.04,1.39-1.31,1.23-2.13
						C113.38,110.53,113.48,110.47,113.58,110.4z"/>
      </g>
     </g>
     <g>
      <g>
       <path d="M117.93,112.32c-0.12-0.45-0.94-0.08-1.28-0.07c-0.04,0.23,0.16,0.33,0.2,0.5c-0.26,0.17-0.55,0.18-0.83,0.22
						c-0.15-0.15-0.21-0.42-0.47-0.34c-0.15,0.04-0.06,0.19-0.17,0.25c-0.29-0.02-0.29-0.02-0.33,0.27
						c0.09,0.05,0.18,0.11,0.27,0.16c-0.22,1.02,2.57-0.04,2.98-0.34C118.16,112.74,117.99,112.58,117.93,112.32z"/>
      </g>
     </g>
     <g>
      <g>
       <path d="M111.05,111.35c-0.32-0.33-0.42-0.77-0.1-1.12c-0.16-0.15-0.38-0.03-0.53-0.25c-0.2-0.23-0.32,0.04-0.37,0.28
						c-0.57,0.08-0.24,0.27-0.11,0.57c0.19,0.52,0.86,1.78,1.51,1.54C111.42,112.02,111.33,111.6,111.05,111.35z"/>
      </g>
     </g>
    </g>
   </g>
  </g>
 </g>
</svg>
