<?xml version="1.0" encoding="UTF-8"?>
<svg class="hods-header__logo-svg" width="105.8" height="137.9" preserveAspectRatio="xMinYMin" version="1.1" viewBox="0 0 105.8 137.9" xmlns="http://www.w3.org/2000/svg">
 <g transform="translate(-.7 -.1)">
  <path d="m0.7 0.1h6.9v137.9h-6.9z" fill="#7f3f98"/>
  <g>
   <path d="m72.2 9.4v4.1c2.1 0.1 3.6 0.5 4.4 0.7-0.4-2.4-2.1-4.2-4.4-4.8"/>
   <path d="m69.7 6.5c0 1.4-0.3 2.3-0.7 2.9 0 0 0.7-0.2 1.6-0.2 0.6 0 1.5 0.2 1.6 0.2-0.4-0.6-0.7-1.5-0.7-2.9 3.1 0 3.8 1.4 3.8 2.6h0.6v-7h-0.6c0 1.2-0.8 2.6-3.8 2.6 0-3.1 1.4-3.8 2.6-3.8v-0.6h-7v0.6c1.2 0 2.6 0.8 2.6 3.8-3.1 0-3.8-1.4-3.8-2.6h-0.6v7h0.6c0-1.2 0.7-2.6 3.8-2.6m-0.7 2.9c-2.2 0.6-3.9 2.5-4.4 4.8 0.8-0.2 2.3-0.6 4.4-0.7zm3.8 101.5c0 1.4 1.2 2.6 2.6 2.6s2.6-1.2 2.6-2.6-1.2-2.6-2.6-2.6c-1.5 0.1-2.6 1.2-2.6 2.6m1.3 0c0-0.7 0.6-1.3 1.3-1.3s1.3 0.6 1.3 1.3-0.6 1.3-1.3 1.3c-0.8 0-1.3-0.5-1.3-1.3m-6-33.9c0-1.3-1-2.3-2.3-2.3h-13c-1.1 0-2 0.9-2 2 0 0.8 0.6 1.4 1.4 1.4s1.4-0.6 1.4-1.5c0.3 0.3 0.6 0.5 1 0.7-0.2 0.8-0.4 1.9-0.5 3.2-0.2-0.3-0.5-0.4-0.8-0.4-0.5 0-1 0.4-1 1 0 0.5 0.4 1 1 1 0.3 0 0.6-0.2 0.8-0.4 0 0.7 0 1.4 0.1 2.2-0.2-0.1-0.4-0.2-0.6-0.2-0.5 0-1 0.4-1 1 0 0.5 0.4 1 1 1 0.3 0 0.7-0.2 0.8-0.5 0 0.1 0 0.2 0.1 0.3 0.2 0.6 0.4 1.2 0.6 1.7-0.1-0.1-0.3-0.1-0.5-0.1-0.5 0-1 0.4-1 1 0 0.5 0.4 1 1 1 0.5 0 0.9-0.4 1-0.8 0.3 0.6 0.7 1.2 1.2 1.8h-0.2c-0.5 0-1 0.4-1 1s0.4 1 1 1c0.5 0 1-0.4 1-1v-0.1c1.5 1.5 3.4 2.8 5.7 3.7l-0.4 3s0.9 0.4 2.3 0.8 2.7 0.6 2.7 0.6zm-11.8 1.2s0.1 0 0.2 0.1l7.1 14.4c-8.8-4-7.9-11.2-7.3-14.5zm7.5 13.4-6.5-13.1c0.4 0.1 0.8 0.1 1.2 0.1l5.6 11.3zm0.4-2.9-5-10.2c0.4 0 0.7-0.1 1-0.2l4.2 8.6zm0.4-2.9-3.8-7.6c0.3-0.1 0.6-0.2 0.9-0.4l3.1 6.2zm0.4-2.9-2.7-5.4c0.3-0.2 0.6-0.4 0.8-0.6l2.1 4.2zm0.7-5-0.3 2.2-1.7-3.5c0.2-0.1 0.4-0.1 0.6-0.1 0.8-0.1 1.5 0.6 1.4 1.4zm-6.2-58.8c0-0.8 0.7-1.5 1.5-1.5s1.5 0.7 1.5 1.5c0 0.9-0.7 1.5-1.5 1.5-0.8 0.1-1.5-0.6-1.5-1.5m-19.9 10.6c0-0.8 0.7-1.5 1.5-1.5 0.9 0 1.5 0.7 1.5 1.5 0 0.9-0.7 1.5-1.5 1.5s-1.5-0.7-1.5-1.5m-0.8-3.9c0-0.9 0.7-1.5 1.5-1.5s1.5 0.7 1.5 1.5-0.7 1.5-1.5 1.5c-0.8 0.1-1.5-0.6-1.5-1.5m0.3-3.9c0-0.8 0.7-1.5 1.5-1.5 0.9 0 1.5 0.7 1.5 1.5s-0.7 1.5-1.5 1.5-1.5-0.7-1.5-1.5m2.1-3.4c0-0.8 0.7-1.5 1.5-1.5 0.9 0 1.5 0.7 1.5 1.5s-0.7 1.5-1.5 1.5c-0.8 0.1-1.5-0.6-1.5-1.5m3.2-2.3c0-0.8 0.7-1.5 1.5-1.5s1.5 0.7 1.5 1.5c0 0.9-0.7 1.5-1.5 1.5-0.8 0.1-1.5-0.6-1.5-1.5m3.9-0.7c0-0.8 0.7-1.5 1.5-1.5 0.9 0 1.5 0.7 1.5 1.5s-0.7 1.5-1.5 1.5c-0.8 0.1-1.5-0.6-1.5-1.5m3.8 0.8c0-0.8 0.7-1.5 1.5-1.5 0.9 0 1.5 0.7 1.5 1.5s-0.7 1.5-1.5 1.5c-0.8 0.1-1.5-0.6-1.5-1.5m3.7 1.5c0-0.8 0.7-1.5 1.5-1.5 0.9 0 1.5 0.7 1.5 1.5 0 0.9-0.7 1.5-1.5 1.5s-1.5-0.7-1.5-1.5m25.9 1.3c0-0.8-0.7-1.5-1.5-1.5s-1.5 0.7-1.5 1.5c0 0.9 0.7 1.5 1.5 1.5 0.8 0.1 1.5-0.6 1.5-1.5m19.9 10.6c0-0.8-0.7-1.5-1.5-1.5-0.9 0-1.5 0.7-1.5 1.5 0 0.9 0.7 1.5 1.5 1.5s1.5-0.7 1.5-1.5m0.8-3.9c0-0.9-0.7-1.5-1.5-1.5s-1.5 0.7-1.5 1.5 0.7 1.5 1.5 1.5c0.8 0.1 1.5-0.6 1.5-1.5m-0.4-3.9c0-0.8-0.7-1.5-1.5-1.5-0.9 0-1.5 0.7-1.5 1.5s0.7 1.5 1.5 1.5c0.9 0 1.5-0.7 1.5-1.5m-2-3.4c0-0.8-0.7-1.5-1.5-1.5s-1.5 0.7-1.5 1.5 0.7 1.5 1.5 1.5c0.8 0.1 1.5-0.6 1.5-1.5m-3.2-2.3c0-0.8-0.7-1.5-1.5-1.5-0.9 0-1.5 0.7-1.5 1.5 0 0.9 0.7 1.5 1.5 1.5 0.8 0.1 1.5-0.6 1.5-1.5m-3.9-0.7c0-0.8-0.7-1.5-1.5-1.5-0.9 0-1.5 0.7-1.5 1.5s0.7 1.5 1.5 1.5c0.8 0.1 1.5-0.6 1.5-1.5m-3.9 0.8c0-0.8-0.7-1.5-1.5-1.5-0.9 0-1.5 0.7-1.5 1.5s0.7 1.5 1.5 1.5c0.9 0.1 1.5-0.6 1.5-1.5m-3.7 1.5c0-0.8-0.7-1.5-1.5-1.5s-1.5 0.7-1.5 1.5c0 0.9 0.7 1.5 1.5 1.5 0.9 0 1.5-0.7 1.5-1.5m-1.5 23.4c0-0.9-0.8-1.7-1.7-1.7s-1.7 0.8-1.7 1.7 0.8 1.7 1.7 1.7 1.7-0.8 1.7-1.7m-11.1 10.2v19.4h17.2v-19.4zm16.7 18.9h-16.2v-18.3h16.1z"/>
   <path d="m74.9 52.6h-1v17h14.8v-17zm12.8 0.5v0.5h0.5v15h-0.5v0.5h-12.8v-0.5h-0.5v-15h0.5v-0.5z"/>
   <path d="m87 57.5-0.8 0.8s-0.1 0-0.1 0.1l-1.5 1.4c-0.5 0.4-0.6 1.1-0.2 1.6l0.9 1.2c0.1 0.1 0.1 0.2 0.1 0.4 0 0.1-0.1 0.3-0.2 0.3-0.1 0.1-0.2 0.1-0.4 0.1-0.1 0-0.3-0.1-0.3-0.2 0 0-0.9-1.2-1.3-1.8v-1.7l2.1-2v-1.7l-0.7-0.7 0.9-0.9h-3.7l-0.9 0.9v1c0.1-0.1 0.3-0.1 0.4-0.1 0.4 0 0.8 0.4 0.8 0.8s-0.4 0.8-0.8 0.8c-0.1 0-0.3 0-0.4-0.1v1.2h-1.3l-1.5-2.1c0.2-0.2 0.3-0.5 0.3-0.8 0-0.6-0.5-1-1-1-0.2 0-0.4 0.1-0.6 0.2v1.7h0.1l2.1 3h1.7l-0.9 0.9h-1.8c-0.1-0.4-0.5-0.6-0.9-0.6s-0.8 0.3-0.9 0.6c0 0.1-0.1 0.2-0.1 0.4s0.1 0.5 0.2 0.6h4.1l0.7 1h-2.8l1.1 1.5 0.6 0.8h-1.4c-0.1-0.4-0.5-0.7-1-0.7-0.4 0-0.8 0.3-1 0.7v0.3c0 0.3 0.1 0.5 0.3 0.7h5.1l-0.7-1-0.6-0.8h1.6l0.6 0.8 0.7 1h2.4v1.1h-0.3c-0.1-0.4-0.5-0.7-1-0.7s-0.8 0.3-1 0.7v0.3c0 0.3 0.1 0.5 0.3 0.7h3v-3.2h-2l-1-1.3c0.2 0.2 0.4 0.4 0.7 0.4s0.6 0 0.9-0.2 0.4-0.5 0.5-0.8c0-0.3 0-0.6-0.2-0.9l-0.9-1.2c-0.2-0.2-0.1-0.6 0.1-0.7l0.4-0.4c0.4 0.3 0.9 0.3 1.3 0 0.2-0.2 0.3-0.4 0.3-0.7zm-18.7-16.3 2.3-2.3 2.3 2.3-2.3 2.3zm-10.9 0c0-0.9 0.8-1.7 1.7-1.7s1.7 0.8 1.7 1.7-0.8 1.7-1.7 1.7-1.7-0.8-1.7-1.7m31.3 43.6v-0.5c0-0.7-0.5-1.2-1.2-1.2h-4.3c0-0.5-0.5-1-1-1-0.3 0-0.5 0.1-0.7 0.3l-1.3 1.3h7.3c0.3 0 0.5 0.2 0.5 0.5s-0.2 0.5-0.5 0.5h-8.5v-1.2l1.5-1.5h-5.9l1.5 1.5v2.2l-2.4-1.9c0.2-0.2 0.3-0.5 0.3-0.8 0-0.6-0.5-1-1-1-0.2 0-0.5 0.1-0.7 0.2v1.8l3.7 3-1.7 0.5c-0.1-0.4-0.5-0.7-1-0.7-0.6 0-1 0.5-1 1 0 0.2 0.1 0.5 0.2 0.6h2.1l9.2-2.9v1.4l-1.2 0.5c-0.1-0.5-0.5-0.8-1-0.8-0.6 0-1 0.5-1 1 0 0.2 0.1 0.5 0.2 0.6h2.3l1.4-0.7 0.9-0.4-0.4-0.9v-0.2h3.4c0 0.1-0.1 0.3-0.1 0.4-0.1 0.2-0.2 0.5-0.3 0.7-0.2-0.2-0.5-0.3-0.8-0.3-0.6 0-1 0.5-1 1 0 0.2 0.1 0.5 0.2 0.6h2.1c0.3-0.6 0.5-1.3 0.6-1.7 0.3-0.9 0.5-1.7 0.5-2 0.1 0.1-0.9 0.1-0.9 0.1zm-11.1 0.1-1-1h2zm11.2-7.5c0.1-0.2 0.1-0.3 0.1-0.5 0-0.7-0.5-1.2-1.2-1.2h-4.5c0-0.5-0.5-1-1-1-0.3 0-0.5 0.1-0.7 0.3l-1.3 1.3h7.6c0.3 0 0.5 0.2 0.5 0.5s-0.2 0.5-0.5 0.5h-8.8v-1.2l1.5-1.5h-5.9l1.5 1.5v2.2l-2.4-1.9c0.2-0.2 0.3-0.5 0.3-0.7 0-0.6-0.5-1-1-1-0.2 0-0.5 0.1-0.7 0.2v1.8l3.6 2.9-1.7 0.5c-0.1-0.4-0.5-0.7-1-0.7-0.6 0-1 0.5-1 1 0 0.2 0.1 0.5 0.2 0.7h2.1l9.2-2.9v1.5l-1.2 0.4c-0.1-0.4-0.5-0.7-1-0.7-0.6 0-1 0.5-1 1 0 0.2 0.1 0.5 0.2 0.7h2.3l2.3-0.7 1.1-0.4-0.9-0.8-0.6-0.6h4.1v1.1c-0.2-0.2-0.5-0.4-0.8-0.4-0.6 0-1 0.5-1 1 0 0.2 0.1 0.5 0.2 0.7h2.6v-3.7zm-11.2 0.1-1-1h2zm7.4 12.9h-1.8c0-0.5-0.5-1-1-1-0.3 0-0.5 0.1-0.7 0.3l-1.3 1.3h4.9c0.3 0 0.5 0.2 0.5 0.5s-0.2 0.5-0.5 0.5h-5.9v-1l1.5-1.5h-5.9l1.5 1.5v2.5l-2.4-2.2c0.2-0.2 0.4-0.5 0.4-0.8 0-0.6-0.5-1-1-1-0.2 0-0.5 0.1-0.7 0.2v1.7l3.8 3.5 0.2-0.2-2.4 2.9c-0.2-0.2-0.5-0.2-0.7-0.2-0.6 0.1-1 0.6-0.9 1.1 0 0.2 0.1 0.4 0.2 0.6 0.4 0 0.9-0.1 1.7-0.2l2.7-3.2c0.4-0.1 0.7-0.3 1.1-0.4l1.1 1-0.6 0.3c-0.3-0.2-0.7-0.3-1-0.2-0.5 0.2-0.8 0.8-0.6 1.3 0.1 0.2 0.2 0.3 0.3 0.4 0 0 0.4-0.1 0.8-0.3s0.8-0.3 0.8-0.3c0.5-0.2 0.9-0.4 1.3-0.6v-2.7c0.7-0.4 1.3-0.8 1.8-1.3l1 0.9c-0.2 0.2-0.4 0.3-0.7 0.5-0.3-0.2-0.7-0.2-1 0-0.2 0.1-0.4 0.4-0.5 0.6v0.4c0 0.1 0.1 0.3 0.1 0.4 0.1 0.2 0.3 0.3 0.5 0.4 0.5-0.3 0.9-0.6 1.4-0.9 0.3-0.2 0.7-0.5 1-0.8l0.3-0.3v-1.3h0.7c0.7 0 1.2-0.5 1.2-1.2 0-0.6-0.5-1.2-1.2-1.2zm-7.4 1.9-1-1h2zm-10.2-24.6c0.1-0.2 0.1-0.3 0.1-0.5 0-0.7-0.5-1.2-1.2-1.2h-4.5c0-0.5-0.5-1-1-1-0.3 0-0.5 0.1-0.7 0.3l-1.3 1.3h7.6c0.3 0 0.5 0.2 0.5 0.5s-0.2 0.5-0.5 0.5h-8.7v-1.2l1.5-1.5h-5.9l1.5 1.5v2.2l-2.4-1.9c0.2-0.2 0.3-0.5 0.3-0.7 0-0.6-0.5-1-1-1-0.3 0-0.5 0.1-0.7 0.2v1.8l3.6 2.9-1.7 0.5c-0.1-0.4-0.5-0.7-1-0.7-0.6 0-1 0.5-1 1 0 0.3 0.1 0.5 0.2 0.7h2.1l9.2-2.9v1.5l-1.2 0.4c-0.1-0.4-0.5-0.7-1-0.7-0.6 0-1 0.5-1 1 0 0.3 0.1 0.5 0.2 0.7h2.1l2.3-0.7 1.1-0.3-0.9-0.8-0.6-0.6h4.1v1.1c-0.2-0.2-0.5-0.4-0.8-0.4-0.6 0-1 0.5-1 1 0 0.3 0.1 0.5 0.2 0.7h2.6v-3.7zm-11.3 0.1-1-1h2zm11.3-7.2c0.1-0.2 0.1-0.3 0.1-0.5 0-0.7-0.5-1.2-1.2-1.2h-4.5c0-0.5-0.5-1-1-1-0.3 0-0.5 0.1-0.7 0.3l-1.3 1.3h7.5c0.3 0 0.5 0.2 0.5 0.5s-0.2 0.5-0.5 0.5h-8.7v-1.2l1.5-1.5h-5.9l1.5 1.5v2.2l-2.4-1.9c0.2-0.2 0.3-0.5 0.3-0.7 0-0.6-0.5-1-1-1-0.3 0-0.5 0.1-0.7 0.2v1.8l3.6 2.9-1.7 0.5c-0.1-0.4-0.5-0.7-1-0.7-0.6 0-1 0.5-1 1 0 0.2 0.1 0.5 0.2 0.7h2.1l9.2-2.9v1.5l-1.2 0.4c-0.1-0.4-0.5-0.7-1-0.7-0.6 0-1 0.5-1 1 0 0.2 0.1 0.5 0.2 0.7h2.2l2.3-0.7 1.1-0.4-0.9-0.8-0.6-0.6h4.1v1.1c-0.2-0.2-0.5-0.4-0.8-0.4-0.6 0-1 0.5-1 1 0 0.2 0.1 0.5 0.2 0.7h2.6v-3.8h-1.1zm-11.3 0.1-1-1h2zm11.3-7.3c0.1-0.2 0.1-0.3 0.1-0.5 0-0.7-0.5-1.2-1.2-1.2h-4.5c0-0.5-0.5-1-1-1-0.3 0-0.5 0.1-0.7 0.3l-1.3 1.3h7.5c0.3 0 0.5 0.2 0.5 0.5s-0.2 0.5-0.5 0.5h-8.7v-1.2l1.5-1.5h-5.9l1.5 1.5v2.2l-2.4-1.9c0.2-0.2 0.3-0.5 0.3-0.7 0-0.6-0.5-1-1-1-0.3 0-0.5 0.1-0.7 0.2v1.8l3.6 2.9-1.7 0.5c-0.1-0.4-0.5-0.7-1-0.7-0.6 0-1 0.5-1 1 0 0.3 0.1 0.5 0.2 0.7h2.1l9.2-2.9v1.5l-1.2 0.4c-0.1-0.4-0.5-0.7-1-0.7-0.6 0-1 0.5-1 1 0 0.3 0.1 0.5 0.2 0.7h2.1l2.3-0.7 1.1-0.3-0.9-0.8-0.6-0.6h4.1v1.1c-0.2-0.2-0.5-0.4-0.8-0.4-0.6 0-1 0.5-1 1 0 0.3 0.1 0.5 0.2 0.7h2.6v-3.8zm-11.3 0.2-1-1h2zm42.6 18.1c0.7-0.2 1-0.9 0.8-1.5-0.1-0.3-0.3-0.6-0.6-0.7-0.3-0.2-0.6-0.2-0.9-0.1s-0.6 0.3-0.7 0.6c-0.2 0.3-0.2 0.6-0.1 0.9 0.2 0.6 0.9 0.9 1.5 0.8m-3.5 2.7 0.2 1.1 4-0.6c0.1 0 4 2 4 2l-0.2-1.4-2.8-1.4c0.2-0.2 2.3-2.1 2.3-2.1l-0.2-1.4-0.1 0.1s-3.1 2.9-3.2 3c0 0.1-4 0.7-4 0.7m3.1 3.9c0 0.3 0.1 0.6 0.4 0.9 0.2 0.2 0.5 0.4 0.9 0.3 0.3 0 0.6-0.1 0.9-0.4 0.2-0.2 0.3-0.5 0.3-0.9 0-0.3-0.1-0.6-0.4-0.9-0.2-0.2-0.5-0.4-0.9-0.4-0.7 0.1-1.2 0.7-1.2 1.4m-2.8 2-0.1 1.1s3.1 0.4 3.3 0.5c0 0.1-0.1 0.9-0.1 0.9v0.5c0 0.5 0.1 1 0.4 1.4s0.8 0.7 1.5 0.8c1.4 0.2 2.4-0.5 2.6-1.9l0.3-2.2zm6.4 2c0 0.1-0.1 1.1-0.1 1.1-0.1 1-0.9 1-1.2 0.9-0.6-0.1-1-0.5-1-1v-0.2s0.1-0.8 0.1-1c0.2-0.1 2.1 0.1 2.2 0.2zm-7.1 2.5-1.3 3.8 1.1 0.4s0.9-2.7 0.9-2.8c0.1 0.1 1.9 0.6 2.1 0.7-0.1 0.2-0.9 2.6-0.9 2.6l1.1 0.4s0.8-2.5 0.9-2.6c0.1 0.1 1.9 0.6 2 0.7-0.1 0.2-0.9 2.7-0.9 2.7l1.1 0.4 1.3-3.8zm-1.5 4.5-0.5 0.8s4.4 2.8 4.8 3.1c-0.5 0-7.1 0.6-7.1 0.6l-0.5 0.8 6.6 4.2 0.6-0.9s-4.4-2.8-4.8-3.1c0.5 0 7.2-0.7 7.2-0.7l0.5-0.8zm-2.6 9.4c-0.8 0.1-1.5 0.3-2-0.2-0.2-0.2-0.4-0.8 0.1-1.3s1.2-0.6 2-0.5h0.3l-1.2-1.2c-0.8 0.1-1.4 0.3-1.9 0.9-0.4 0.4-0.6 0.9-0.6 1.4 0 0.6 0.2 1.1 0.7 1.6 1 1 2.1 0.8 3.1 0.6 0.7-0.2 1.3-0.3 1.8 0.1 0.1 0.2 0.2 0.3 0.2 0.5 0 0.3-0.1 0.5-0.4 0.8-0.4 0.4-0.9 0.6-1.6 0.5h-0.2l1.1 1.1c0.6-0.1 1.1-0.3 1.5-0.7 0.5-0.5 0.7-1 0.7-1.5s-0.2-1.1-0.7-1.5c-0.9-1-2-0.8-2.9-0.6m-4.8-0.4-3.3 2.2 0.6 1s2.3-1.6 2.5-1.7c0.1 0.1 1.1 1.7 1.2 1.8-0.1 0.1-2.3 1.6-2.3 1.6l0.6 1s2.2-1.5 2.3-1.5c0.1 0.1 1.1 1.6 1.2 1.8-0.1 0.1-2.4 1.6-2.4 1.6l0.6 1 3.3-2.2zm-28.9 5.2c-0.1-0.1-3-1.9-3.1-2 0.1-0.1 1.8-2.8 1.8-2.8l-1-0.6v0.1l-4.1 6.5 1 0.6s1.7-2.7 1.8-2.8c0.1 0.1 3 1.9 3.1 2-0.1 0.1-1.8 2.8-1.8 2.8l1 0.6 4.2-6.6-1-0.6c-0.1 0-1.8 2.6-1.9 2.8m-4-5.8c0.1-1-0.3-1.9-0.9-2.6-1.7-1.9-4-1.5-5.5-0.2-0.9 0.8-1.4 1.8-1.4 2.8-0.1 1 0.3 1.9 1 2.7 1.4 1.6 3.8 1.7 5.5 0.2 0.7-0.8 1.2-1.8 1.3-2.9m-1.2 0c0 0.7-0.4 1.5-1 2-1.2 1.1-2.8 1.1-3.8-0.1-0.5-0.5-0.7-1.2-0.6-1.8 0-0.7 0.4-1.4 1-2 0.6-0.5 1.4-0.8 2.1-0.8s1.3 0.3 1.7 0.8c0.4 0.6 0.6 1.2 0.6 1.9m-2.9-6.5s-4.8 2.2-5.2 2.4c0.2-0.4 3.3-6.5 3.3-6.5l-0.4-0.9h-0.1l-7 3.3 0.5 1s4.8-2.2 5.2-2.4c-0.2 0.4-3.3 6.5-3.3 6.5l0.4 0.8 7-3.3zm-2.6-7.1-0.1 0.1-7.5 1.8 0.3 1.2 7.5-1.9zm-3.6-2.5c-0.3-0.2-0.6-0.3-0.9-0.2-0.3 0-0.6 0.2-0.8 0.5s-0.3 0.6-0.2 0.9c0 0.3 0.2 0.6 0.5 0.8s0.6 0.3 0.9 0.2c0.7-0.1 1.1-0.7 1-1.4-0.1-0.4-0.3-0.6-0.5-0.8m-0.5-3c0.5-0.7 0.9-1.3 1.6-1.3 0.2 0 0.4 0.1 0.6 0.3s0.3 0.5 0.3 0.8c0 0.6-0.4 1.2-1.1 1.7l-0.2 0.2h1.7c0.5-0.6 0.7-1.2 0.7-2 0-0.5-0.2-1-0.5-1.4-0.4-0.4-1-0.6-1.6-0.6-1.4 0-2 0.9-2.6 1.8-0.4 0.6-0.7 1.2-1.3 1.2-0.2 0-0.4-0.1-0.5-0.2-0.2-0.2-0.3-0.5-0.3-0.8 0-0.5 0.3-1.1 0.8-1.5l0.2-0.1h-1.5c-0.4 0.5-0.6 1-0.6 1.6 0 0.7 0.2 1.2 0.6 1.6s0.9 0.6 1.5 0.6c1-0.2 1.6-1.1 2.2-1.9m-0.5-3.3c1.1 0.3 2.2 0.1 3.1-0.4 0.8-0.5 1.4-1.3 1.6-2.3s0.1-2-0.4-2.8c-0.5-0.9-1.5-1.6-2.6-1.8-2.2-0.6-4.3 0.6-4.8 2.7-0.1 0.3-0.1 0.6-0.1 0.9 0 0.7 0.2 1.3 0.5 1.8 0.7 1 1.6 1.7 2.7 1.9m-1.8-4.3c0.2-0.7 0.6-1.2 1.1-1.6 0.6-0.4 1.4-0.5 2.2-0.3s1.5 0.7 1.8 1.3 0.4 1.2 0.3 1.9c-0.4 1.4-1.8 2.2-3.4 1.8-1.5-0.3-2.4-1.6-2-3.1"/>
   <path d="m106.5 78.6c0-9.6-3.7-18.6-10.5-25.4-0.8-0.8-1.6-1.5-2.5-2.3v-1.4c1.4-0.1 2.6-1.3 2.6-2.7 0-1.5-1.2-2.7-2.7-2.7h-0.2l2.6-1.2-1-2.2 3.9-9.1-1.7-0.7-4 9.3-2.1 1 1.4 3h-43.4l1.4-3-2.2-1-4-9.3-1.7 0.7 3.9 9.1-1 2.2 2.6 1.2h-0.1c-1.5 0-2.7 1.2-2.7 2.7 0 1.4 1.1 2.6 2.5 2.7v1.4c-0.8 0.7-1.7 1.5-2.5 2.3-6.8 6.8-10.5 15.8-10.5 25.4 0 7.4 2.2 14.5 6.5 20.6 4.2 5.9 9.9 10.4 16.7 12.9 0 0 0.4 0.1 1 0.4 0.1 1 0.7 1.9 1.6 2.2 1 0.4 2.1 0 2.7-0.7h0.1v10.2c0 3.8 3.2 6.8 7.2 6.8s7.2-3.1 7.2-6.8v-6.8l17.6-8.4c0.6-0.2 1.1-0.5 1.6-0.9 1.4-1.3 1.6-3.3 0.7-5.9 1.6-1.8 3-3.7 4.1-5.8 3.2-5.4 4.9-11.5 4.9-17.8zm-18.7-32.8 5.2 1.1-5.2 1.1zm-16.7 54.6v-27h20.6v5.1c0 5-0.9 8.4-2.2 10.9-1.1 1.8-2.4 3.5-4 5l-0.3 0.3c-3.8 3.6-8.9 5.6-14.1 5.7zm6.2 0.9c-0.4 0.9-0.7 1.9-0.9 3-2-0.7-3.9-1.4-5.8-2.1 2.3 0.1 4.6-0.3 6.7-0.9zm-6.2-28.8v-22.9h20.6v22.9zm7.2-26.7 5.2 1.1-5.2 1.1zm-9.6 0 5.2 1.1-5.2 1.1zm-9.7 0 5.2 1.1-5.2 1.1zm-9.4 0 5.2 1.1-5.2 1.1zm0 21.8v-18h20.6v22.9h-20.6zm0 5.8h20.6v27c-4.2-0.1-8.3-1.4-11.8-3.8-0.1-0.1-0.3-0.2-0.4-0.3l-0.1-0.1c-0.1-0.1-0.2-0.1-0.3-0.2s-0.2-0.2-0.3-0.2l-0.1-0.1c-2.2-1.7-4.1-3.9-5.5-6.4-1.3-2.5-2.1-5.9-2.1-10.8zm9.8 37.4c-0.3-0.1-0.6-0.2-0.8-0.3-6.4-2.4-11.9-6.7-15.8-12.3-4-5.7-6.2-12.5-6.2-19.6 0-9.1 3.5-17.6 10-24.1 0.4-0.4 0.8-0.8 1.2-1.1v9.3c-1.4-1-3-2-3.1-2.1 0.1-0.1 1.3-2 1.3-2l-1-0.6v0.1l-3.2 4.8 1 0.6s1.2-1.8 1.3-2c0.1 0.1 2.2 1.4 3.7 2.5v3.3l-6.6-3v0.1l-0.5 1 7.1 3.3v4c-0.5 1.9-0.8 3.9-0.8 6 0 4.3 1.2 8.3 3.2 11.8 1.3 2.5 3 4.2 4.6 5.7 0.7 0.6 1.4 1.2 2.2 1.8 0.1 0 0.1 0.1 0.2 0.1 0.1 0.1 0.2 0.1 0.3 0.2s0.2 0.1 0.3 0.2l0.1 0.1c0.6 0.4 1.2 0.8 1.9 1.1 0.9 0.4 2.1 1 3.5 1.6l-1.5 3.7-0.7-0.3c-0.4-0.2-0.9 0-1.1 0.4s0 0.9 0.4 1.1l0.7 0.3zm16.6 13.5c0 0.7-0.2 1.4-0.5 2-0.3 0.5-0.8 0.8-1.3 0.8-0.7 0-1.3-0.4-1.5-1.1 0-0.1-0.1-0.4-0.2-0.9 0.2 0.1 0.4 0.1 0.6 0.1 0.9 0 1.6-0.7 1.6-1.5 0-0.9-0.7-1.5-1.6-1.5-0.5 0-0.9 0.2-1.2 0.5-0.5-2-1-4.2-1-4.2h-0.7s-0.5 2.2-1 4.2c-0.3-0.3-0.7-0.5-1.1-0.5-0.9 0-1.5 0.7-1.5 1.5 0 0.9 0.7 1.5 1.5 1.5 0.2 0 0.4 0 0.6-0.1-0.1 0.4-0.2 0.8-0.2 0.9-0.2 0.6-0.8 1.1-1.5 1.1-0.6 0-1.1-0.3-1.4-0.8-0.3-0.6-0.4-1.3-0.4-2v-9.6c3.2 1 7.2 2.2 10.9 3zm0.8-8.4c-5.6-1.2-12.1-3.3-15.9-4.6 0.4-0.9 1-2.5 1.7-4.2l1 0.4v0.2c0 1.4 1.2 2.6 2.6 2.6s2.6-1.2 2.6-2.6-1.2-2.6-2.6-2.6c-0.8 0-1.4 0.3-1.9 0.9l-1.1-0.5c0.6-1.5 1.1-2.9 1.5-3.7 3.8 1.6 8.7 3.5 13.4 5 5 1.5 9 2.4 12 2.7-5.3 2.6-12.9 6.2-13.3 6.4zm18.9-9.2c-0.5 0.5-1.7 1-4.2 1 1.7-1.2 3.2-2.5 4.6-4 0.4 1.4 0.3 2.4-0.4 3zm-7.1 0.8c-2.4-0.3-5.7-1.1-10-2.4-0.2-0.1-0.4-0.1-0.6-0.2 0.4-2.5 1.2-4.1 2.6-4.9 2.2-1 4.2-2.4 6-4.1 1.6-1.4 3.2-3.1 4.4-5.5 2-3.5 3.2-7.6 3.2-11.9 0-2-0.3-4.1-0.8-6v-3.8l1.1 2.8 1.1-0.4s-1.1-2.7-1.1-2.8c0.2-0.1 6.2-2.5 6.2-2.5l-0.4-1.1h-0.1l-6.7 2.7v-0.5l4.5-6.4-0.4-0.7h-0.1l-4 0.9v-7.5c0.4 0.4 0.8 0.7 1.2 1.1 6.4 6.4 10 15 10 24.1 0 5.9-1.5 11.8-4.5 16.9-2.8 5.1-6.8 9.2-11.6 12.2zm5.3-42.9-0.4 0.6v-1.2zm-0.3-2.6c0.2 0 2.2-0.5 2.5-0.6-0.2 0.3-1.4 2-1.5 2.1-0.1-0.1-0.9-1.3-1-1.5z"/>
   <path d="m97.4 21c-1.4-2.1-3.7-3-5.4-3-2.4 0-4.9 1-7.3 2-2.7 1.1-5.5 2.2-8.3 2 0.3-1 0.7-2 1.2-2.8l-1.7-0.8c0.3-0.6 0.6-1.3 0.7-2.1-0.2-0.1-2.5-0.9-6.2-0.9s-5.8 0.8-6 0.9c0.1 0.8 0.3 1.5 0.7 2.1l-1.7 0.8c0.5 0.8 0.9 1.8 1.2 2.8-2.8 0.3-5.6-0.9-8.3-2-2.4-1-4.9-2-7.3-2-1.7 0-4 0.9-5.4 3-1.1 1.7-2 4.9 0.4 10v-0.1l3.5-1.5 0.2 0.6c-1.1 0.5-2.2 1.8-0.9 4.8 3-1.3 3.1-3 2.6-4.1l0.6-0.2 3 6.8-0.6 0.2c-0.5-1.1-1.8-2.2-4.8-0.9 1.3 3 3.6 4.2 5.4 4.2 3.1 0 5.3-1.9 5-3.8-0.2-1.4-1.5-1.9-2-1.8-0.6 0.1-1 0.8-0.9 1.2 0 0.1 0.1 0.2 0.1 0.3l-0.1 0.1c-0.8-0.1-1.5-0.7-1.7-1.5-0.2-1 0.5-2 1.5-2.2 0.6-0.1 1.2 0.1 1.7 0.5l0.2-0.3c-0.6-0.3-1-0.8-1.1-1.5-0.3-1.6 1.5-3.2 1.6-3.2 0 0 2.3 0.8 2.6 2.4 0.1 0.7-0.1 1.3-0.5 1.8l0.3 0.2c0.2-0.5 0.7-1 1.4-1.1 1-0.2 2 0.5 2.2 1.5 0.2 0.8-0.3 1.7-1 2l-0.1-0.1v-0.3c-0.1-0.5-0.7-0.9-1.3-0.8-0.5 0.1-1.5 1-1.2 2.4 0.5 2.4 2.5 4.1 4.9 4.1s5-2 5-5c-3.5 0-4.3 1.6-4.3 3h-0.7v-8h0.7c0 1.3 0.9 3 4.3 3 0-3.5-1.6-4.3-3-4.3v-0.7h7.9v0.7c-1.3 0-3 0.9-3 4.3 3.5 0 4.3-1.6 4.3-3h0.7v8h-0.5c0-1.3-0.9-3-4.3-3 0 3 2.5 5 5 5 2.4 0 4.5-1.7 4.9-4.1 0.3-1.4-0.7-2.4-1.2-2.4-0.6-0.1-1.2 0.3-1.3 0.8v0.3l-0.1 0.1c-0.7-0.4-1.2-1.2-1-2 0.2-1 1.2-1.7 2.2-1.5 0.6 0.1 1.1 0.5 1.4 1.1l0.3-0.2c-0.4-0.5-0.6-1.1-0.5-1.8 0.3-1.6 2.6-2.4 2.6-2.4s1.9 1.6 1.6 3.2c-0.1 0.7-0.6 1.2-1.1 1.5l0.2 0.3c0.4-0.4 1-0.6 1.7-0.5 1 0.2 1.7 1.2 1.5 2.2-0.2 0.9-0.9 1.5-1.7 1.5l-0.1-0.1c0.1-0.1 0.1-0.2 0.1-0.3 0.1-0.5-0.3-1.1-0.9-1.2-0.5-0.1-1.8 0.4-2 1.8-0.3 1.9 2 3.8 5 3.8 1.8 0 4.1-1.2 5.4-4.2-3-1.3-4.3-0.2-4.8 0.9l-0.6-0.2 3-6.8 0.6 0.2c-0.5 1.1-0.4 2.8 2.6 4.1 1.3-3 0.2-4.3-0.9-4.8l0.2-0.6 3.5 1.5v0.1c2.1-5.2 1.2-8.3 0.1-10m-32.1 4.4c-1.7 0-3.1 0.9-3.9 2.3-0.9-1.6-2.9-2.6-4.8-2.2-1.4 0.3-2.6 1.3-3.1 2.5-0.8-1.3-2.2-2.1-3.8-2.1-2 0-3.7 1.3-4.3 3.1-1.1-2.9-1.1-5.3 0-7s3-2.2 3.8-2.2c2.1 0 4.3 0.9 6.6 1.8 3 1.2 6.1 2.5 9.5 2 0.1 0.6 0.2 1.1 0.3 1.7-0.1 0.1-0.2 0.1-0.3 0.1m5.3-9.3c0.9 0 1.7 0.7 1.8 1.6-0.5-0.4-1.1-0.7-1.8-0.7s-1.3 0.3-1.8 0.7c0.1-0.9 0.9-1.6 1.8-1.6m0 1.7c0.9 0 1.7 0.7 1.8 1.6-0.5-0.4-1.1-0.7-1.8-0.7s-1.3 0.3-1.8 0.7c0.1-0.9 0.9-1.6 1.8-1.6m0 10.1c-1 0-1.8-0.8-1.8-1.8s0.8-1.8 1.8-1.8 1.8 0.8 1.8 1.8-0.8 1.8-1.8 1.8m1.7-3.9c-0.5-0.4-1.1-0.6-1.7-0.6-0.7 0-1.2 0.2-1.7 0.6-0.1-0.2-0.1-0.4-0.1-0.6 0-1 0.8-1.8 1.8-1.8s1.8 0.8 1.8 1.8c0 0.2 0 0.4-0.1 0.6m0.1-2.5c-0.5-0.4-1.1-0.7-1.8-0.7s-1.3 0.3-1.8 0.7v-0.1c0-1 0.8-1.8 1.8-1.8s1.8 0.8 1.8 1.8v0.1m23.4 7.5c-0.6-1.8-2.3-3.1-4.3-3.1-1.6 0-3 0.8-3.8 2.1-0.6-1.2-1.7-2.2-3.1-2.5-2-0.4-3.9 0.5-4.8 2.2-0.8-1.3-2.2-2.3-3.9-2.3h-0.3c0.1-0.5 0.2-1.1 0.3-1.7 3.4 0.5 6.5-0.8 9.5-2 2.3-0.9 4.5-1.8 6.6-1.8 0.8 0 2.7 0.5 3.8 2.2 1.1 1.6 1.1 4 0 6.9m-14.5 21.9h-0.7l0.4 0.8h0.4l-0.1 0.3 0.1-0.2h0.1l0.1-0.1 0.4-0.8zm-8.3 0.7-0.1 0.1v0.3l-0.7-0.1v-0.5l-0.5-0.9 0.1-0.1 0.9 0.5h0.5v0.7l-0.2-0.1"/>
   <path d="m73.5 51.4c-0.1 0-0.2-0.1-0.2-0.2s0.1-0.2 0.2-0.2 0.1 0 0.2 0.1h0.1v-0.2c0-0.3-0.2-0.5-0.5-0.5s-0.5 0.2-0.5 0.5 0.2 0.5 0.5 0.5h0.2m-0.8 0.8c0-0.1-0.1-0.2-0.2-0.2s-0.2 0.1-0.2 0.2 0 0.1 0.1 0.2v0.1h-0.2c-0.3 0-0.5-0.2-0.5-0.5s0.2-0.5 0.5-0.5 0.5 0.2 0.5 0.5v0.2m0.3 18.5-0.1-0.1v-0.3l-0.7 0.1v0.4l-0.5 0.9 0.1 0.2 0.9-0.6h0.5v-0.7l-0.2 0.1"/>
   <path d="m73.5 70.8c-0.1 0-0.2 0.1-0.2 0.2s0.1 0.2 0.2 0.2 0.1 0 0.2-0.1h0.1v0.2c0 0.3-0.2 0.5-0.5 0.5s-0.5-0.2-0.5-0.5 0.2-0.5 0.5-0.5h0.2m-0.8-0.7c0 0.1-0.1 0.2-0.2 0.2s-0.2-0.1-0.2-0.2 0-0.1 0.1-0.2v-0.1h-0.2c-0.3 0-0.5 0.2-0.5 0.5s0.2 0.5 0.5 0.5 0.5-0.2 0.5-0.5v-0.2m16.9 0.6 0.1-0.1v-0.3l0.7 0.1v0.4l0.5 0.9-0.1 0.2-0.9-0.6h-0.5v-0.7l0.2 0.1"/>
   <path d="m89.1 70.8c0.1 0 0.2 0.1 0.2 0.2s-0.1 0.2-0.2 0.2-0.1 0-0.2-0.1h-0.1v0.2c0 0.3 0.2 0.5 0.5 0.5s0.5-0.2 0.5-0.5-0.2-0.5-0.5-0.5h-0.2m0.8-0.7c0 0.1 0.1 0.2 0.2 0.2s0.2-0.1 0.2-0.2 0-0.1-0.1-0.2v-0.1h0.2c0.3 0 0.5 0.2 0.5 0.5s-0.2 0.5-0.5 0.5-0.5-0.2-0.5-0.5v-0.2m-0.3-18.5 0.1 0.1v0.3l0.7-0.1v-0.5l0.5-0.9-0.1-0.1-0.9 0.5h-0.5v0.7l0.2-0.1"/>
   <path d="m89.1 51.4c0.1 0 0.2-0.1 0.2-0.2s-0.1-0.2-0.2-0.2-0.1 0-0.2 0.1h-0.1v-0.2c0-0.3 0.2-0.5 0.5-0.5s0.5 0.2 0.5 0.5-0.2 0.5-0.5 0.5h-0.2m0.8 0.8c0-0.1 0.1-0.2 0.2-0.2s0.2 0.1 0.2 0.2 0 0.1-0.1 0.2v0.1h0.2c0.3 0 0.5-0.2 0.5-0.5s-0.2-0.5-0.5-0.5-0.5 0.2-0.5 0.5zm-9.4 0.6h1.5v1h-1.5z"/>
   <path d="m81.4 54.1h-0.2l-0.3-0.6h0.8zm1-0.7-0.1 0.1c-0.1 0-0.2-0.1-0.2-0.2s0.1-0.2 0.2-0.2h-0.2c-0.2 0-0.4 0.2-0.4 0.4s0.2 0.4 0.4 0.4 0.4-0.2 0.4-0.4c-0.1 0-0.1 0-0.1-0.1zm-2.2 0 0.1 0.1c0.1 0 0.2-0.1 0.2-0.2s-0.1-0.2-0.2-0.2h0.2c0.2 0 0.4 0.2 0.4 0.4s-0.2 0.4-0.4 0.4-0.4-0.2-0.4-0.4c0.1 0 0.1 0 0.1-0.1zm1.1 18h0.7l-0.4-0.8-0.3-0.1h-0.1l0.2-0.2-0.2 0.2h-0.1l-0.1 0.1-0.4 0.8zm-0.7-2.7h1.5v1h-1.5z"/>
   <path d="m81.2 68.1h0.2l0.3 0.7h-0.8zm-1 0.8 0.1-0.1c0.1 0 0.2 0.1 0.2 0.2s-0.1 0.2-0.2 0.2h0.2c0.2 0 0.4-0.2 0.4-0.4s-0.2-0.4-0.4-0.4-0.4 0.2-0.4 0.4c0.1 0 0.1 0 0.1 0.1zm2.2 0-0.1-0.1c-0.1 0-0.2 0.1-0.2 0.2s0.1 0.2 0.2 0.2h-0.2c-0.2 0-0.4-0.2-0.4-0.4s0.2-0.4 0.4-0.4 0.4 0.2 0.4 0.4c-0.1 0-0.1 0-0.1 0.1zm8-7.8v-0.7l-0.8 0.4v0.4l-0.2-0.1 0.2 0.2h-0.1l0.1 0.1 0.8 0.4zm-2.6-0.7h1v1.5h-1zm-0.6 0.8v-0.2l0.6-0.3v0.8zm1 0.9v-0.1 0.1"/>
   <path d="m88 62.2-0.1-0.1c0-0.1 0.1-0.2 0.2-0.2s0.2 0.1 0.2 0.2v-0.2c0-0.2-0.2-0.4-0.4-0.4s-0.4 0.2-0.4 0.4 0.2 0.4 0.4 0.4zm0-2.1-0.1 0.1c0 0.1 0.1 0.2 0.2 0.2s0.2-0.1 0.2-0.2v0.2c0 0.2-0.2 0.4-0.4 0.4s-0.4-0.2-0.4-0.4 0.2-0.4 0.4-0.4zm-15.8 1v-0.7l0.8 0.4v0.4l0.2-0.1-0.2 0.2h0.1l-0.1 0.1-0.8 0.4zm1.9-0.7h1v1.5h-1z"/>
   <path d="m75.4 61.2v-0.2l-0.6-0.3v0.8zm-1 0.9v-0.1 0.1"/>
   <path d="m74.7 62.2 0.1-0.1c0-0.1-0.1-0.2-0.2-0.2s-0.2 0.1-0.2 0.2v-0.2c0-0.2 0.2-0.4 0.4-0.4s0.4 0.2 0.4 0.4-0.2 0.4-0.4 0.4c0 0-0.1 0-0.1-0.1zm0-2.1 0.1 0.1c0 0.1-0.1 0.2-0.2 0.2s-0.2-0.1-0.2-0.2v0.2c0 0.2 0.2 0.4 0.4 0.4s0.4-0.2 0.4-0.4-0.2-0.4-0.4-0.4c0 0-0.1 0-0.1 0.1z"/>
  </g>
 </g>
</svg>
